<svg xmlns:xlink="http://www.w3.org/1999/xlink" width="24" xmlns="http://www.w3.org/2000/svg" height="24" id="screenshot-cf2f4ecb-3e87-809c-8001-de2c8cef1cef" viewBox="0 0 24 24" style="-webkit-print-color-adjust: exact;" fill="none" version="1.1"><g xmlns:xlink="http://www.w3.org/1999/xlink" width="24" xml:space="preserve" height="24" id="shape-cf2f4ecb-3e87-809c-8001-de2c8cef1cef" style="fill-rule: evenodd; clip-rule: evenodd; stroke-linejoin: round; stroke-miterlimit: 2; fill: rgb(0, 0, 0);" ry="0" rx="0" version="1.1"><g id="shape-cf2f4ecb-3e87-809c-8001-de2c8cf09d4b" rx="0" ry="0" style="fill: rgb(0, 0, 0);"><g id="shape-cf2f4ecb-3e87-809c-8001-de2c8cf1276c" rx="0" ry="0" style="fill: rgb(0, 0, 0);"><g id="shape-cf2f4ecb-3e87-809c-8001-de2c8cf1c193"><g class="fills" id="fills-cf2f4ecb-3e87-809c-8001-de2c8cf1c193"><rect rx="0" ry="0" x="0" y="0" transform="matrix(1.000000, 0.000000, 0.000000, 1.000000, 0.000000, 0.000000)" width="24" height="24" style="fill: none;"/></g></g><g id="shape-cf2f4ecb-3e87-809c-8001-de2c8cf2575e" rx="0" ry="0" style="fill: rgb(0, 0, 0);"><g id="shape-cf2f4ecb-3e87-809c-8001-de2c8cf28c88" rx="0" ry="0" style="fill: rgb(0, 0, 0);"><g id="shape-cf2f4ecb-3e87-809c-8001-de2c8cf3d165"><g class="fills" id="fills-cf2f4ecb-3e87-809c-8001-de2c8cf3d165"><path rx="0" ry="0" d="M4.761,12.536L5.071,12.459C5.179,12.432,5.289,12.418,5.400,12.418C6.141,12.418,6.750,13.027,6.750,13.768L6.750,19.232C6.750,19.973,6.141,20.582,5.400,20.582C5.289,20.582,5.179,20.568,5.072,20.542L3.332,20.107C2.112,19.801,1.250,18.696,1.250,17.439L1.250,15.562C1.250,14.333,2.075,13.249,3.250,12.916C3.291,7.548,7.218,3.250,12.000,3.250C16.782,3.250,20.709,7.548,20.750,12.916C21.926,13.250,22.750,14.333,22.750,15.562L22.750,17.439C22.750,18.697,21.887,19.802,20.667,20.107L18.927,20.542C18.820,20.568,18.710,20.582,18.600,20.582C17.860,20.582,17.250,19.973,17.250,19.232L17.250,13.768C17.250,13.027,17.860,12.418,18.600,12.418C18.710,12.418,18.820,12.432,18.927,12.458L19.239,12.536C19.028,8.216,15.891,4.750,12.000,4.750C8.109,4.750,4.972,8.216,4.761,12.536ZZM19.817,14.228L18.750,13.960L18.750,19.040L20.303,18.651C20.858,18.513,21.250,18.011,21.250,17.439L21.250,15.562C21.250,14.990,20.858,14.488,20.303,14.350L19.817,14.228ZZM5.250,19.040L5.250,13.960L4.183,14.227L3.697,14.349C3.143,14.488,2.750,14.990,2.750,15.562L2.750,17.439C2.750,18.010,3.142,18.513,3.696,18.651L5.250,19.040ZZ"/></g></g></g></g></g></g></g></svg>