<svg xmlns:xlink="http://www.w3.org/1999/xlink" width="24" xmlns="http://www.w3.org/2000/svg" height="24" id="screenshot-a6862155-592c-80e2-8002-056734337f16" viewBox="0 0 24 24" style="-webkit-print-color-adjust: exact;" fill="none" version="1.1"><g id="shape-a6862155-592c-80e2-8002-056734337f16" width="24" height="24" rx="0" ry="0" style="fill: rgb(0, 0, 0);"><g id="shape-a6862155-592c-80e2-8002-056734337f18"><g class="fills" id="fills-a6862155-592c-80e2-8002-056734337f18"><path fill-rule="evenodd" clip-rule="evenodd" rx="0" ry="0" d="M12.530,5.470C12.823,5.763,12.823,6.237,12.530,6.530L7.811,11.250L18.500,11.250C18.914,11.250,19.250,11.586,19.250,12.000C19.250,12.414,18.914,12.750,18.500,12.750L7.811,12.750L12.530,17.470C12.823,17.763,12.823,18.237,12.530,18.530C12.237,18.823,11.763,18.823,11.470,18.530L5.470,12.530C5.398,12.458,5.344,12.376,5.307,12.287C5.270,12.199,5.250,12.102,5.250,12.000C5.250,11.898,5.270,11.801,5.307,11.713C5.344,11.624,5.398,11.542,5.470,11.470L11.470,5.470C11.763,5.177,12.237,5.177,12.530,5.470ZZ" style="fill: rgb(0, 122, 255); fill-opacity: 1;"/></g></g></g></svg>