<svg xmlns:xlink="http://www.w3.org/1999/xlink" width="24" xmlns="http://www.w3.org/2000/svg" height="24" id="screenshot-cf2f4ecb-3e87-809c-8001-de2c8cfdfb03" viewBox="0 0 24 24" style="-webkit-print-color-adjust: exact;" fill="none" version="1.1"><g xmlns:xlink="http://www.w3.org/1999/xlink" width="24" xml:space="preserve" height="24" id="shape-cf2f4ecb-3e87-809c-8001-de2c8cfdfb03" style="fill-rule: evenodd; clip-rule: evenodd; stroke-linejoin: round; stroke-miterlimit: 2; fill: #008aff;" ry="0" rx="0" version="1.1"><g id="shape-cf2f4ecb-3e87-809c-8001-de2c8cfe8398" rx="0" ry="0" style="fill: #008aff;"><g id="shape-cf2f4ecb-3e87-809c-8001-de2c8cff14d7" rx="0" ry="0" style="fill: #008aff;"><g id="shape-cf2f4ecb-3e87-809c-8001-de2c8cff82ba"><g class="fills" id="fills-cf2f4ecb-3e87-809c-8001-de2c8cff82ba"><rect rx="0" ry="0" x="0" y="0" transform="matrix(1.000000, 0.000000, 0.000000, 1.000000, 0.000000, 0.000000)" width="24" height="24" style="fill: none;"/></g></g><g id="shape-cf2f4ecb-3e87-809c-8001-de2c8cffe414" rx="0" ry="0" style="fill: #008aff;"><g id="shape-cf2f4ecb-3e87-809c-8001-de2c8d00202a" rx="0" ry="0" style="fill: #008aff;"><g id="shape-cf2f4ecb-3e87-809c-8001-de2c8d010903"><g class="fills" id="fills-cf2f4ecb-3e87-809c-8001-de2c8d010903"><path rx="0" ry="0" d="M3.250,19.000L3.250,5.000C3.250,3.491,4.491,2.250,6.000,2.250L19.400,2.250C20.141,2.250,20.750,2.859,20.750,3.600L20.750,16.714C20.750,16.763,20.745,16.811,20.736,16.857C20.745,16.903,20.750,16.951,20.750,17.000C20.750,17.414,20.414,17.750,20.000,17.750L6.000,17.750C5.314,17.750,4.750,18.314,4.750,19.000C4.750,19.686,5.314,20.250,6.000,20.250L20.000,20.250C20.414,20.250,20.750,20.586,20.750,21.000C20.750,21.414,20.414,21.750,20.000,21.750L6.000,21.750C4.491,21.750,3.250,20.509,3.250,19.000ZZM6.000,16.250L19.250,16.250L19.250,3.750L6.000,3.750C5.314,3.750,4.750,4.314,4.750,5.000L4.750,16.554C5.126,16.360,5.551,16.250,6.000,16.250ZZM9.000,7.750C8.586,7.750,8.250,7.414,8.250,7.000C8.250,6.586,8.586,6.250,9.000,6.250L15.000,6.250C15.414,6.250,15.750,6.586,15.750,7.000C15.750,7.414,15.414,7.750,15.000,7.750L9.000,7.750ZZ"/></g></g></g></g></g></g></g></svg>
