<svg xmlns:xlink="http://www.w3.org/1999/xlink" width="24" xmlns="http://www.w3.org/2000/svg" height="24" id="screenshot-cf2f4ecb-3e87-809c-8001-de2c8d11e4b9" viewBox="0 0 24 24" style="-webkit-print-color-adjust: exact;" fill="none" version="1.1"><g xmlns:xlink="http://www.w3.org/1999/xlink" width="24" xml:space="preserve" height="24" id="shape-cf2f4ecb-3e87-809c-8001-de2c8d11e4b9" style="fill-rule: evenodd; clip-rule: evenodd; stroke-linejoin: round; stroke-miterlimit: 2; fill: #f90;" ry="0" rx="0" version="1.1"><g id="shape-cf2f4ecb-3e87-809c-8001-de2c8d12bb8a" rx="0" ry="0" style="fill: #f90;"><g id="shape-cf2f4ecb-3e87-809c-8001-de2c8d130160" rx="0" ry="0" style="fill: #f90;"><g id="shape-cf2f4ecb-3e87-809c-8001-de2c8d134f68"><g class="fills" id="fills-cf2f4ecb-3e87-809c-8001-de2c8d134f68"><rect rx="0" ry="0" x="0" y="0" transform="matrix(1.000000, 0.000000, 0.000000, 1.000000, 0.000000, 0.000000)" width="24" height="24" style="fill: none;"/></g></g><g id="shape-cf2f4ecb-3e87-809c-8001-de2c8d14391c" rx="0" ry="0" style="fill: #f90;"><g id="shape-cf2f4ecb-3e87-809c-8001-de2c8d149914" rx="0" ry="0" style="fill: #f90;"><g id="shape-cf2f4ecb-3e87-809c-8001-de2c8d155372"><g class="fills" id="fills-cf2f4ecb-3e87-809c-8001-de2c8d155372"><path rx="0" ry="0" d="M10.000,19.750L2.000,19.750C1.586,19.750,1.250,19.414,1.250,19.000C1.250,18.951,1.255,18.903,1.264,18.857C1.255,18.811,1.250,18.763,1.250,18.714L1.250,5.600C1.250,4.859,1.859,4.250,2.600,4.250L10.000,4.250C10.785,4.250,11.497,4.586,12.000,5.120C12.503,4.586,13.215,4.250,14.000,4.250L21.400,4.250C22.141,4.250,22.750,4.859,22.750,5.600L22.750,18.714C22.750,18.763,22.745,18.811,22.736,18.857C22.745,18.903,22.750,18.951,22.750,19.000C22.750,19.414,22.414,19.750,22.000,19.750L14.000,19.750C13.314,19.750,12.750,20.314,12.750,21.000C12.750,21.414,12.414,21.750,12.000,21.750C11.586,21.750,11.250,21.414,11.250,21.000C11.250,20.314,10.686,19.750,10.000,19.750ZZM14.000,18.250L21.250,18.250L21.250,5.750L14.000,5.750C13.314,5.750,12.750,6.314,12.750,7.000L12.750,18.554C13.126,18.360,13.551,18.250,14.000,18.250ZZM11.250,18.554L11.250,7.000C11.250,6.314,10.686,5.750,10.000,5.750L2.750,5.750L2.750,18.250L10.000,18.250C10.449,18.250,10.874,18.360,11.250,18.554ZZ"/></g></g></g></g></g></g></g></svg>
