<svg xmlns:xlink="http://www.w3.org/1999/xlink" width="25.5" xmlns="http://www.w3.org/2000/svg" height="25.5" id="screenshot-a7125e76-854f-80ad-8001-cfe1fe595aed" viewBox="-0.75 -0.75 25.5 25.5" style="-webkit-print-color-adjust: exact;" fill="none" version="1.1"><g id="shape-a7125e76-854f-80ad-8001-cfe1fe595aed" width="24px" height="24px" rx="0" ry="0" style="fill: rgb(0, 0, 0);"><g id="shape-a7125e76-854f-80ad-8001-cfe1fe595aee"><g class="fills" id="fills-a7125e76-854f-80ad-8001-cfe1fe595aee"><rect width="24" height="24" x="0" transform="matrix(0.000000, 1.000000, -1.000000, 0.000000, 24.000000, 0.000000)" style="fill: none;" ry="0" fill="none" rx="0" y="0" color="#000000"/></g><g id="strokes-a7125e76-854f-80ad-8001-cfe1fe595aee" class="strokes"><g class="stroke-shape"><rect width="24" height="24" x="0" transform="matrix(0.000000, 1.000000, -1.000000, 0.000000, 24.000000, 0.000000)" style="fill: none; stroke-width: 1.5;" ry="0" rx="0" y="0" color="#000000"/></g></g></g><g id="shape-a7125e76-854f-80ad-8001-cfe275b4360a"><g class="fills" id="fills-a7125e76-854f-80ad-8001-cfe275b4360a"><path fill-rule="evenodd" clip-rule="evenodd" rx="0" ry="0" d="M5.720,7.970C6.013,7.677,6.487,7.677,6.780,7.970L10.280,11.470C10.573,11.763,10.573,12.237,10.280,12.530L6.780,16.030C6.487,16.323,6.013,16.323,5.720,16.030C5.427,15.737,5.427,15.263,5.720,14.970L8.689,12.000L5.720,9.030C5.427,8.737,5.427,8.263,5.720,7.970ZZM18.280,7.970C18.573,8.263,18.573,8.737,18.280,9.030L15.311,12.000L18.280,14.970C18.573,15.263,18.573,15.737,18.280,16.030C17.987,16.323,17.513,16.323,17.220,16.030L13.720,12.530C13.427,12.237,13.427,11.763,13.720,11.470L17.220,7.970C17.513,7.677,17.987,7.677,18.280,7.970ZZ" style="fill: rgb(0, 0, 0);"/></g></g></g></svg>