<svg xmlns:xlink="http://www.w3.org/1999/xlink" width="24" xmlns="http://www.w3.org/2000/svg" height="24" id="screenshot-cf2f4ecb-3e87-809c-8001-de0cc20fdfdb" viewBox="0 0 24 24" style="-webkit-print-color-adjust: exact;" fill="none" version="1.1"><g xmlns:xlink="http://www.w3.org/1999/xlink" width="24" xml:space="preserve" height="24" id="shape-cf2f4ecb-3e87-809c-8001-de0cc20fdfdb" style="fill-rule: evenodd; clip-rule: evenodd; stroke-linejoin: round; stroke-miterlimit: 2; fill: rgb(0, 0, 0);" ry="0" rx="0" version="1.1"><g id="shape-cf2f4ecb-3e87-809c-8001-de0cc2116648" rx="0" ry="0" style="fill: rgb(0, 0, 0);"><g id="shape-cf2f4ecb-3e87-809c-8001-de0cc212131c"><g class="fills" id="fills-cf2f4ecb-3e87-809c-8001-de0cc212131c"><rect rx="0" ry="0" x="0" y="0.0000041390499063709285" transform="matrix(1.000000, 0.000000, 0.000000, 1.000000, 0.000000, 0.000000)" width="24" height="24" style="fill: none;"/></g></g><g id="shape-cf2f4ecb-3e87-809c-8001-de0cc2125780" rx="0" ry="0" style="fill: rgb(0, 0, 0);"><g id="shape-cf2f4ecb-3e87-809c-8001-de0cc2151e01"><g class="fills" id="fills-cf2f4ecb-3e87-809c-8001-de0cc2151e01"><path rx="0" ry="0" d="M8.250,19.462C8.250,19.292,8.250,19.188,8.250,19.189C8.204,18.472,8.346,17.763,8.652,17.128C6.987,16.787,5.392,16.120,4.279,14.741C3.359,13.602,2.750,11.966,2.750,9.581C2.742,8.134,3.242,6.734,4.154,5.623C3.788,4.341,3.872,2.965,4.401,1.732C4.488,1.527,4.663,1.371,4.877,1.308C4.877,1.308,6.194,0.812,9.133,2.698C11.343,2.156,13.651,2.156,15.861,2.696C17.428,1.635,18.325,0.944,18.892,0.782C19.230,0.686,19.515,0.707,19.765,0.806C20.074,0.930,20.371,1.199,20.599,1.732C21.128,2.966,21.212,4.341,20.846,5.622C21.750,6.725,22.250,8.112,22.250,9.547C22.250,11.952,21.641,13.597,20.722,14.739C19.610,16.121,18.017,16.783,16.354,17.109C16.661,17.749,16.801,18.464,16.750,19.185L16.750,22.027C16.750,22.441,16.414,22.777,16.000,22.777C15.586,22.777,15.250,22.441,15.250,22.027L15.250,19.157C15.250,19.137,15.251,19.118,15.252,19.098C15.311,18.349,15.045,17.609,14.522,17.069C14.322,16.864,14.257,16.563,14.354,16.293C14.451,16.024,14.693,15.833,14.977,15.802C16.668,15.613,18.429,15.195,19.553,13.799C20.303,12.867,20.750,11.510,20.750,9.547C20.750,8.344,20.286,7.186,19.457,6.314C19.259,6.106,19.197,5.804,19.297,5.535C19.686,4.494,19.658,3.343,19.221,2.322C19.215,2.308,19.207,2.293,19.199,2.277C19.067,2.343,18.845,2.458,18.649,2.588C18.415,2.742,18.147,2.930,17.837,3.149C17.437,3.430,16.969,3.760,16.418,4.130C16.237,4.251,16.013,4.288,15.804,4.231C13.640,3.645,11.360,3.645,9.196,4.231C8.987,4.288,8.763,4.251,8.582,4.130C7.126,3.154,6.108,2.870,5.610,2.789C5.343,3.685,5.372,4.650,5.703,5.535C5.803,5.804,5.741,6.106,5.543,6.314C4.707,7.192,4.244,8.361,4.250,9.573L4.250,9.577C4.250,11.524,4.697,12.871,5.446,13.799C6.572,15.194,8.338,15.622,10.032,15.833C10.315,15.868,10.553,16.059,10.647,16.328C10.742,16.596,10.677,16.894,10.479,17.099C9.962,17.633,9.696,18.363,9.748,19.104C9.749,19.122,9.750,19.139,9.750,19.157C9.750,19.157,9.750,20.032,9.750,20.042L9.750,22.027C9.750,22.441,9.414,22.777,9.000,22.777C8.586,22.777,8.250,22.441,8.250,22.027C8.250,22.027,8.250,21.556,8.250,20.998C6.937,21.260,5.724,21.159,4.648,20.709C3.313,20.150,2.173,19.049,1.329,17.362C1.144,16.992,1.294,16.541,1.665,16.356C2.035,16.171,2.486,16.321,2.671,16.692C3.327,18.005,4.187,18.890,5.227,19.325C6.124,19.700,7.143,19.735,8.250,19.462ZZ"/></g></g></g></g></g></svg>