<svg xmlns:xlink="http://www.w3.org/1999/xlink" width="24" xmlns="http://www.w3.org/2000/svg" height="24" id="screenshot-cf2f4ecb-3e87-809c-8001-de0cc2201412" viewBox="0 0 24 24" style="-webkit-print-color-adjust: exact;" fill="none" version="1.1"><g xmlns:xlink="http://www.w3.org/1999/xlink" width="24" xml:space="preserve" height="24" id="shape-cf2f4ecb-3e87-809c-8001-de0cc2201412" style="fill-rule: evenodd; clip-rule: evenodd; stroke-linejoin: round; stroke-miterlimit: 2; fill: rgb(0, 0, 0);" ry="0" rx="0" version="1.1"><g id="shape-cf2f4ecb-3e87-809c-8001-de0cc2222488" rx="0" ry="0" style="fill: rgb(0, 0, 0);"><g id="shape-cf2f4ecb-3e87-809c-8001-de0cc222d7b2" rx="0" ry="0" style="fill: rgb(0, 0, 0);"><g id="shape-cf2f4ecb-3e87-809c-8001-de0cc223b661"><g class="fills" id="fills-cf2f4ecb-3e87-809c-8001-de0cc223b661"><rect rx="0" ry="0" x="0" y="0.0000041390499063709285" transform="matrix(1.000000, 0.000000, 0.000000, 1.000000, 0.000000, 0.000000)" width="24" height="24" style="fill: none;"/></g></g><g id="shape-cf2f4ecb-3e87-809c-8001-de0cc2244415" rx="0" ry="0" style="fill: rgb(0, 0, 0);"><g id="shape-cf2f4ecb-3e87-809c-8001-de0cc224d313" rx="0" ry="0" style="fill: rgb(0, 0, 0);"><g id="shape-cf2f4ecb-3e87-809c-8001-de0cc2264408"><g class="fills" id="fills-cf2f4ecb-3e87-809c-8001-de0cc2264408"><path rx="0" ry="0" d="M2.250,16.000L2.250,8.000C2.250,4.846,4.846,2.250,8.000,2.250L16.000,2.250C19.154,2.250,21.750,4.846,21.750,8.000L21.750,16.000C21.750,19.154,19.154,21.750,16.000,21.750L8.000,21.750C4.846,21.750,2.250,19.154,2.250,16.000ZZM3.750,16.000C3.750,18.331,5.669,20.250,8.000,20.250L16.000,20.250C18.331,20.250,20.250,18.331,20.250,16.000L20.250,8.000C20.250,5.669,18.331,3.750,16.000,3.750L8.000,3.750C5.669,3.750,3.750,5.669,3.750,8.000L3.750,16.000ZZM12.000,16.750C9.394,16.750,7.250,14.606,7.250,12.000C7.250,9.394,9.394,7.250,12.000,7.250C14.606,7.250,16.750,9.394,16.750,12.000C16.750,14.606,14.606,16.750,12.000,16.750ZZM12.000,15.250C13.783,15.250,15.250,13.783,15.250,12.000C15.250,10.217,13.783,8.750,12.000,8.750C10.217,8.750,8.750,10.217,8.750,12.000C8.750,13.783,10.217,15.250,12.000,15.250ZZM17.500,5.750C17.914,5.750,18.250,6.086,18.250,6.500C18.250,6.914,17.914,7.250,17.500,7.250C17.086,7.250,16.750,6.914,16.750,6.500C16.750,6.086,17.086,5.750,17.500,5.750ZZ"/></g></g></g></g></g></g></g></svg>