<svg xmlns:xlink="http://www.w3.org/1999/xlink" width="24" xmlns="http://www.w3.org/2000/svg" height="24" id="screenshot-036fa013-b1f7-8037-8001-d45291c80bf0" viewBox="-0 -0 24 24" style="-webkit-print-color-adjust: exact;" fill="none" version="1.1"><g id="shape-036fa013-b1f7-8037-8001-d45291c80bf0" width="24" height="24" rx="0" ry="0" style="fill: rgb(0, 0, 0);"><g id="shape-036fa013-b1f7-8037-8001-d45291c80bf2"><g class="fills" id="fills-036fa013-b1f7-8037-8001-d45291c80bf2"><path fill-rule="evenodd" clip-rule="evenodd" rx="0" ry="0" d="M22.216,3.673C22.134,3.605,22.036,3.554,21.927,3.526C21.838,3.502,21.745,3.494,21.651,3.504C21.620,3.508,21.589,3.513,21.560,3.520C21.517,3.529,21.475,3.543,21.435,3.560L1.986,11.281C1.662,11.410,1.465,11.742,1.505,12.090C1.546,12.439,1.815,12.715,2.160,12.765L8.671,13.701L8.671,18.697C8.671,19.010,8.859,19.292,9.146,19.412C9.434,19.531,9.765,19.463,9.985,19.241L12.862,16.322L18.737,20.365C18.953,20.514,19.230,20.542,19.472,20.438C19.713,20.335,19.885,20.115,19.928,19.854L22.487,4.412C22.500,4.341,22.504,4.266,22.496,4.192C22.493,4.161,22.487,4.130,22.481,4.100C22.465,4.033,22.441,3.968,22.407,3.905C22.364,3.825,22.309,3.755,22.216,3.673ZC22.158,3.620,22.058,3.564,21.951,3.532M16.095,7.341L5.248,11.648L9.245,12.222L16.095,7.341ZL16.095,7.341ZM10.207,14.495L10.207,16.820L11.573,15.435L10.207,14.495ZL10.207,14.495ZM13.212,14.691C13.204,14.685,13.196,14.680,13.212,14.691ZL10.784,13.019L20.670,5.976L18.611,18.406L13.212,14.691ZL13.212,14.691Z" style="fill: rgb(33, 33, 33); fill-opacity: 1;"/></g></g></g></svg>