<svg xmlns:xlink="http://www.w3.org/1999/xlink" width="24" xmlns="http://www.w3.org/2000/svg" height="24" id="screenshot-cf2f4ecb-3e87-809c-8001-de0cc235bc9e" viewBox="0 0 24 24" style="-webkit-print-color-adjust: exact;" fill="none" version="1.1"><g xmlns:xlink="http://www.w3.org/1999/xlink" width="24" xml:space="preserve" height="24" id="shape-cf2f4ecb-3e87-809c-8001-de0cc235bc9e" style="fill-rule: evenodd; clip-rule: evenodd; stroke-linejoin: round; stroke-miterlimit: 2; fill: rgb(0, 0, 0);" ry="0" rx="0" version="1.1"><g id="shape-cf2f4ecb-3e87-809c-8001-de0cc236a051" rx="0" ry="0" style="fill: rgb(0, 0, 0);"><g id="shape-cf2f4ecb-3e87-809c-8001-de0cc236d329" rx="0" ry="0" style="fill: rgb(0, 0, 0);"><g id="shape-cf2f4ecb-3e87-809c-8001-de0cc2374143"><g class="fills" id="fills-cf2f4ecb-3e87-809c-8001-de0cc2374143"><rect rx="0" ry="0" x="0" y="0.000007662300049560145" transform="matrix(1.000000, 0.000000, 0.000000, 1.000000, 0.000000, 0.000000)" width="24" height="24" style="fill: none;"/></g></g><g id="shape-cf2f4ecb-3e87-809c-8001-de0cc237d8ef" rx="0" ry="0" style="fill: rgb(0, 0, 0);"><g id="shape-cf2f4ecb-3e87-809c-8001-de0cc23811d5" rx="0" ry="0" style="fill: rgb(0, 0, 0);"><g id="shape-cf2f4ecb-3e87-809c-8001-de0cc23b60bf"><g class="fills" id="fills-cf2f4ecb-3e87-809c-8001-de0cc23b60bf"><path rx="0" ry="0" d="M11.828,1.764C11.831,1.764,11.847,1.763,11.828,1.764ZC15.075,1.764,16.466,1.962,16.833,2.015C19.295,2.375,21.350,4.256,21.671,6.613C21.672,6.622,21.673,6.631,21.674,6.640C21.827,8.180,21.697,10.687,21.697,11.097C21.697,11.220,21.678,12.344,21.671,12.463L21.671,12.465C21.456,15.818,19.353,17.152,17.146,17.576C17.109,17.586,17.069,17.594,17.028,17.602L17.025,17.603C15.762,17.847,14.409,17.914,13.126,17.950C12.822,17.958,12.518,17.958,12.215,17.958C11.292,17.958,10.373,17.881,9.465,17.728C9.620,18.057,10.132,18.639,11.656,18.639C12.854,18.642,14.049,18.504,15.214,18.228L15.220,18.227C15.334,18.201,15.452,18.201,15.566,18.225L15.569,18.226C15.682,18.252,15.789,18.302,15.881,18.373C15.975,18.445,16.051,18.538,16.104,18.643L16.105,18.645C16.158,18.752,16.187,18.868,16.189,18.987C16.189,18.991,16.189,18.995,16.189,18.999L16.189,20.429C16.189,20.437,16.189,20.445,16.188,20.453C16.184,20.574,16.153,20.692,16.096,20.799C16.040,20.905,15.961,20.997,15.864,21.068C15.862,21.069,15.860,21.071,15.857,21.073C15.396,21.403,14.775,21.605,14.240,21.773L14.238,21.774C14.014,21.844,13.789,21.905,13.561,21.957L13.557,21.958C11.515,22.418,9.384,22.307,7.403,21.637L7.397,21.635C5.443,20.956,3.478,19.264,2.985,17.267L2.984,17.264C2.743,16.272,2.573,15.265,2.476,14.249L2.476,14.246C2.338,12.758,2.326,11.266,2.267,9.771C2.224,8.677,2.253,7.484,2.487,6.407L2.488,6.404C3.013,4.040,5.158,2.362,7.530,2.015C7.898,1.962,8.593,1.764,11.828,1.764ZZM11.852,3.264L11.852,3.264ZC8.756,3.264,8.097,3.448,7.747,3.500C5.980,3.758,4.345,4.967,3.952,6.728C3.745,7.683,3.727,8.741,3.766,9.712C3.824,11.180,3.834,12.645,3.969,14.107C4.060,15.051,4.218,15.987,4.442,16.908C4.821,18.445,6.383,19.694,7.886,20.217C9.606,20.797,11.454,20.894,13.226,20.495C13.417,20.451,13.605,20.400,13.790,20.343C14.075,20.253,14.399,20.163,14.689,20.024C14.701,20.018,14.714,20.012,14.726,20.005C14.720,19.963,14.714,19.913,14.709,19.866L14.689,19.870C13.689,20.051,12.673,20.141,11.655,20.139C8.935,20.139,8.257,18.758,8.047,18.227C8.045,18.221,8.043,18.216,8.041,18.210C7.884,17.783,7.785,17.337,7.745,16.884C7.744,16.876,7.744,16.867,7.743,16.858C7.737,16.734,7.760,16.609,7.811,16.494C7.861,16.381,7.939,16.280,8.036,16.201L8.037,16.200C8.133,16.123,8.245,16.069,8.365,16.043C8.482,16.018,8.603,16.019,8.719,16.047C9.864,16.320,11.037,16.458,12.214,16.458C12.505,16.458,12.795,16.458,13.085,16.450C14.288,16.417,15.557,16.358,16.737,16.130C16.751,16.128,16.778,16.122,16.778,16.122C16.795,16.118,16.813,16.114,16.830,16.110C18.460,15.801,20.015,14.832,20.174,12.371C20.180,12.256,20.197,11.212,20.197,11.097L20.197,11.096C20.197,10.699,20.328,8.292,20.182,6.802L20.182,6.797C19.939,5.085,18.406,3.761,16.616,3.500C16.265,3.448,14.934,3.264,11.852,3.264ZZM11.250,8.500C11.250,7.533,10.466,6.750,9.500,6.750C9.036,6.750,8.591,6.934,8.263,7.263C7.934,7.591,7.750,8.036,7.750,8.500L7.750,13.000C7.750,13.414,7.414,13.750,7.000,13.750C6.586,13.750,6.250,13.414,6.250,13.000L6.250,8.500C6.250,7.638,6.592,6.811,7.202,6.202C7.811,5.592,8.638,5.250,9.500,5.250C10.505,5.250,11.404,5.706,12.000,6.423C12.596,5.706,13.495,5.250,14.500,5.250C15.362,5.250,16.189,5.592,16.798,6.202C17.408,6.811,17.750,7.638,17.750,8.500L17.750,13.000C17.750,13.414,17.414,13.750,17.000,13.750C16.586,13.750,16.250,13.414,16.250,13.000L16.250,8.500C16.250,8.036,16.066,7.591,15.737,7.263C15.409,6.934,14.964,6.750,14.500,6.750C13.534,6.750,12.750,7.533,12.750,8.500L12.750,11.000C12.750,11.414,12.414,11.750,12.000,11.750C11.586,11.750,11.250,11.414,11.250,11.000L11.250,8.500ZZM14.689,19.707C14.689,19.519,14.689,19.000,14.689,19.707ZZ"/></g></g></g></g></g></g></g></svg>