<svg xmlns:xlink="http://www.w3.org/1999/xlink" width="24" xmlns="http://www.w3.org/2000/svg" height="24" id="screenshot-eb938e81-54c4-80c0-8003-415479f26851" viewBox="0 0 24 24" style="-webkit-print-color-adjust: exact;" fill="none" version="1.1"><g id="shape-eb938e81-54c4-80c0-8003-415479f26851" width="24px" height="24px" rx="0" ry="0" style="opacity: 1; fill: rgb(0, 0, 0);"><g id="shape-eb938e81-54c4-80c0-8003-4156573127f9"><g class="fills" id="fills-eb938e81-54c4-80c0-8003-4156573127f9"><path color="#000000" fill="none" stroke-linecap="round" stroke-linejoin="round" rx="0" ry="0" d="M3.000,16.000L10.000,13.000L14.000,14.818M16.000,10.000C14.895,10.000,14.000,9.105,14.000,8.000C14.000,6.895,14.895,6.000,16.000,6.000C17.105,6.000,18.000,6.895,18.000,8.000C18.000,9.105,17.105,10.000,16.000,10.000ZZM16.879,21.121L19.000,19.000M21.121,16.879L19.000,19.000M19.000,19.000L16.879,16.879M19.000,19.000L21.121,21.121" style="fill: none;"/></g><g id="strokes-eb938e81-54c4-80c0-8003-4156573127f9" class="strokes"><g class="stroke-shape"><path color="#000000" stroke-linecap="round" stroke-linejoin="round" rx="0" ry="0" d="M3.000,16.000L10.000,13.000L14.000,14.818M16.000,10.000C14.895,10.000,14.000,9.105,14.000,8.000C14.000,6.895,14.895,6.000,16.000,6.000C17.105,6.000,18.000,6.895,18.000,8.000C18.000,9.105,17.105,10.000,16.000,10.000ZZM16.879,21.121L19.000,19.000M21.121,16.879L19.000,19.000M19.000,19.000L16.879,16.879M19.000,19.000L21.121,21.121" style="fill: none; stroke-width: 1.5; stroke: rgb(33, 33, 33); stroke-opacity: 1;"/></g></g></g><g id="shape-eb938e81-54c4-80c0-8003-4156573127fa"><g class="fills" id="fills-eb938e81-54c4-80c0-8003-4156573127fa"><path color="#000000" fill="none" stroke-linecap="round" stroke-linejoin="round" rx="0" ry="0" d="M13.000,21.000L3.600,21.000C3.441,21.000,3.288,20.937,3.176,20.824C3.063,20.712,3.000,20.559,3.000,20.400L3.000,3.600C3.000,3.441,3.063,3.288,3.176,3.176C3.288,3.063,3.441,3.000,3.600,3.000L20.400,3.000C20.559,3.000,20.712,3.063,20.824,3.176C20.937,3.288,21.000,3.441,21.000,3.600L21.000,13.000" style="fill: none;"/></g><g id="strokes-eb938e81-54c4-80c0-8003-4156573127fa" class="strokes"><g class="stroke-shape"><path color="#000000" stroke-linecap="round" stroke-linejoin="round" rx="0" ry="0" d="M13.000,21.000L3.600,21.000C3.441,21.000,3.288,20.937,3.176,20.824C3.063,20.712,3.000,20.559,3.000,20.400L3.000,3.600C3.000,3.441,3.063,3.288,3.176,3.176C3.288,3.063,3.441,3.000,3.600,3.000L20.400,3.000C20.559,3.000,20.712,3.063,20.824,3.176C20.937,3.288,21.000,3.441,21.000,3.600L21.000,13.000" style="fill: none; stroke-width: 1.5; stroke: rgb(33, 33, 33); stroke-opacity: 1;"/></g></g></g></g></svg>