<?xml version="1.0" encoding="UTF-8" standalone="no"?>
<!DOCTYPE svg PUBLIC "-//W3C//DTD SVG 1.1//EN" "http://www.w3.org/Graphics/SVG/1.1/DTD/svg11.dtd">
<svg width="100%" height="100%" viewBox="0 0 24 24" version="1.1" xmlns="http://www.w3.org/2000/svg" xmlns:xlink="http://www.w3.org/1999/xlink" xml:space="preserve" xmlns:serif="http://www.serif.com/" style="fill-rule:evenodd;clip-rule:evenodd;">
    <path d="M2,15L2,9C2,5.686 4.686,3 8,3L16,3C19.314,3 22,5.686 22,9L22,15C22,18.314 19.314,21 16,21L8,21C4.686,21 2,18.314 2,15Z" style="fill:none;fill-rule:nonzero;stroke:rgb(236,87,102);stroke-width:1.5px;"/>
    <path d="M16.357,12C17.071,12 18.5,12 18.5,10C18.5,8 17.071,8 16.357,8M16.357,12C17.071,12 18.5,12 18.5,14C18.5,16 17.071,16 16.357,16" style="fill:none;fill-rule:nonzero;stroke:black;stroke-width:1.5px;stroke-linecap:round;stroke-linejoin:round;"/>
    <g transform="matrix(-1,0,0,1,35.5,0)">
        <path d="M18.857,12C19.571,12 21,12 21,10C21,8 19.571,8 18.857,8M18.857,12C19.571,12 21,12 21,14C21,16 19.571,16 18.857,16" style="fill:none;fill-rule:nonzero;stroke:black;stroke-width:1.5px;stroke-linecap:round;stroke-linejoin:round;"/>
    </g>
    <g transform="matrix(-1,0,0,1,16.8571,0)">
        <path d="M7.357,9L5.5,8L5.5,16" style="fill:none;fill-rule:nonzero;stroke:black;stroke-width:1.5px;stroke-linecap:round;stroke-linejoin:round;"/>
    </g>
    <g transform="matrix(1,0,0,1,-12,9)">
        <path d="M17,5L19,5M21,5L19,5M19,5L19,3M19,5L19,7" style="fill:none;fill-rule:nonzero;stroke:black;stroke-width:1.5px;stroke-linecap:round;stroke-linejoin:round;"/>
    </g>
</svg>
