<svg xmlns:xlink="http://www.w3.org/1999/xlink" width="24" xmlns="http://www.w3.org/2000/svg" height="24" id="screenshot-cf2f4ecb-3e87-809c-8001-de0cc242d68c" viewBox="0 0 24 24" style="-webkit-print-color-adjust: exact;" fill="none" version="1.1"><g xmlns:xlink="http://www.w3.org/1999/xlink" width="24" xml:space="preserve" height="24" id="shape-cf2f4ecb-3e87-809c-8001-de0cc242d68c" style="fill-rule: evenodd; clip-rule: evenodd; stroke-linejoin: round; stroke-miterlimit: 2; fill: rgb(0, 0, 0);" ry="0" rx="0" version="1.1"><g id="shape-cf2f4ecb-3e87-809c-8001-de0cc243d367" rx="0" ry="0" style="fill: rgb(0, 0, 0);"><g id="shape-cf2f4ecb-3e87-809c-8001-de0cc2440716" rx="0" ry="0" style="fill: rgb(0, 0, 0);"><g id="shape-cf2f4ecb-3e87-809c-8001-de0cc244863b"><g class="fills" id="fills-cf2f4ecb-3e87-809c-8001-de0cc244863b"><rect rx="0" ry="0" x="0" y="0" transform="matrix(1.000000, 0.000000, 0.000000, 1.000000, 0.000000, 0.000000)" width="24" height="24" style="fill: none;"/></g></g><g id="shape-cf2f4ecb-3e87-809c-8001-de0cc2452bae" rx="0" ry="0" style="fill: rgb(0, 0, 0);"><g id="shape-cf2f4ecb-3e87-809c-8001-de0cc2459f0c" rx="0" ry="0" style="fill: rgb(0, 0, 0);"><g id="shape-cf2f4ecb-3e87-809c-8001-de0cc2467616"><g class="fills" id="fills-cf2f4ecb-3e87-809c-8001-de0cc2467616"><path rx="0" ry="0" d="M12.000,22.750C6.063,22.750,1.250,17.937,1.250,12.000C1.250,6.063,6.063,1.250,12.000,1.250C17.937,1.250,22.750,6.063,22.750,12.000C22.750,17.937,17.937,22.750,12.000,22.750ZZM12.000,21.250C17.109,21.250,21.250,17.109,21.250,12.000C21.250,6.891,17.109,2.750,12.000,2.750C6.891,2.750,2.750,6.891,2.750,12.000C2.750,17.109,6.891,21.250,12.000,21.250ZZM11.507,14.933L9.106,17.230C8.889,17.438,8.569,17.496,8.293,17.378C8.017,17.260,7.838,16.989,7.838,16.688L7.838,9.848C7.838,8.469,8.976,7.341,10.393,7.341L13.041,7.341C15.188,7.341,16.920,9.046,16.920,11.137C16.920,13.228,15.188,14.933,13.041,14.933L11.507,14.933ZZM11.206,13.433L13.041,13.433C14.349,13.433,15.420,12.411,15.420,11.137C15.420,9.863,14.349,8.841,13.041,8.841L10.393,8.841C9.816,8.841,9.338,9.286,9.338,9.848L9.338,14.933L10.688,13.641C10.827,13.508,11.013,13.433,11.206,13.433ZZ"/></g></g></g></g></g></g></g></svg>