<svg xmlns:xlink="http://www.w3.org/1999/xlink" width="24" xmlns="http://www.w3.org/2000/svg" height="24" id="screenshot-cf2f4ecb-3e87-809c-8001-de2c8d3297a4" viewBox="0 0 24 24" style="-webkit-print-color-adjust: exact;" fill="none" version="1.1"><g xmlns:xlink="http://www.w3.org/1999/xlink" width="24" xml:space="preserve" height="24" id="shape-cf2f4ecb-3e87-809c-8001-de2c8d3297a4" style="fill-rule: evenodd; clip-rule: evenodd; stroke-linejoin: round; stroke-miterlimit: 2; fill: #f90;" ry="0" rx="0" version="1.1"><g id="shape-cf2f4ecb-3e87-809c-8001-de2c8d33454f" rx="0" ry="0" style="fill: #f90;"><g id="shape-cf2f4ecb-3e87-809c-8001-de2c8d33cdc3" rx="0" ry="0" style="fill: #f90;"><g id="shape-cf2f4ecb-3e87-809c-8001-de2c8d3472d6"><g class="fills" id="fills-cf2f4ecb-3e87-809c-8001-de2c8d3472d6"><rect rx="0" ry="0" x="0" y="0" transform="matrix(1.000000, 0.000000, 0.000000, 1.000000, 0.000000, 0.000000)" width="24" height="24" style="fill: none;"/></g></g><g id="shape-cf2f4ecb-3e87-809c-8001-de2c8d34fa8b" rx="0" ry="0" style="fill: #f90;"><g id="shape-cf2f4ecb-3e87-809c-8001-de2c8d357654" rx="0" ry="0" style="fill: #f90;"><g id="shape-cf2f4ecb-3e87-809c-8001-de2c8d364986"><g class="fills" id="fills-cf2f4ecb-3e87-809c-8001-de2c8d364986"><path rx="0" ry="0" d="M7.250,4.750L5.562,4.750C4.988,4.750,4.488,5.141,4.348,5.698C3.506,9.052,2.757,11.997,1.867,15.201C1.431,16.769,2.288,18.138,3.502,18.380C4.325,18.544,5.255,18.154,6.034,17.064C6.274,16.727,6.743,16.649,7.080,16.890C7.417,17.130,7.495,17.599,7.254,17.936C6.033,19.646,4.500,20.109,3.208,19.851C1.250,19.460,-0.281,17.330,0.421,14.799C1.309,11.607,2.054,8.674,2.893,5.333C3.200,4.109,4.300,3.250,5.562,3.250L18.438,3.250L18.440,3.250C19.694,3.253,20.798,4.103,21.122,5.314C21.524,6.821,22.299,9.674,23.723,14.799C24.426,17.330,22.895,19.460,20.936,19.851C19.644,20.109,18.111,19.646,16.890,17.936C16.649,17.599,16.727,17.130,17.064,16.890C17.401,16.649,17.870,16.727,18.110,17.064C18.889,18.154,19.819,18.544,20.643,18.380C21.856,18.138,22.713,16.769,22.277,15.201C20.851,10.068,20.076,7.211,19.672,5.702C19.523,5.143,19.014,4.751,18.437,4.750L16.750,4.750L16.750,6.000C16.750,7.509,15.509,8.750,14.000,8.750L10.000,8.750C8.491,8.750,7.250,7.509,7.250,6.000L7.250,4.750ZZM15.250,4.750L8.750,4.750L8.750,6.000C8.750,6.686,9.314,7.250,10.000,7.250L14.000,7.250C14.686,7.250,15.250,6.686,15.250,6.000L15.250,4.750ZZM8.000,16.750C6.491,16.750,5.250,15.509,5.250,14.000C5.250,12.491,6.491,11.250,8.000,11.250C9.509,11.250,10.750,12.491,10.750,14.000C10.750,15.509,9.509,16.750,8.000,16.750ZZM8.000,15.250C8.686,15.250,9.250,14.686,9.250,14.000C9.250,13.314,8.686,12.750,8.000,12.750C7.314,12.750,6.750,13.314,6.750,14.000C6.750,14.686,7.314,15.250,8.000,15.250ZZM16.000,16.750C14.491,16.750,13.250,15.509,13.250,14.000C13.250,12.491,14.491,11.250,16.000,11.250C17.509,11.250,18.750,12.491,18.750,14.000C18.750,15.509,17.509,16.750,16.000,16.750ZZM16.000,15.250C16.686,15.250,17.250,14.686,17.250,14.000C17.250,13.314,16.686,12.750,16.000,12.750C15.314,12.750,14.750,13.314,14.750,14.000C14.750,14.686,15.314,15.250,16.000,15.250ZZ"/></g></g></g></g></g></g></g></svg>
