<svg xmlns:xlink="http://www.w3.org/1999/xlink" width="25.5" xmlns="http://www.w3.org/2000/svg" height="25.5"
	 id="screenshot-4b6a7f9c-14db-80d5-8001-c8b5c329a39b" viewBox="-0.75 -0.75 25.5 25.5"
	 style="-webkit-print-color-adjust: exact;" fill="none" version="1.1">
	<g id="shape-4b6a7f9c-14db-80d5-8001-c8b5c329a39b" width="32px" height="32px" rx="0" ry="0"
	   style="fill: rgb(0, 0, 0);">
		<g id="shape-4b6a7f9c-14db-80d5-8001-c8b7d35d4b48">
			<g class="fills" id="fills-4b6a7f9c-14db-80d5-8001-c8b7d35d4b48">
				<path fill-rule="evenodd" clip-rule="evenodd" rx="0" ry="0"
					  d="M19.000,16.750C19.066,16.750,19.130,16.724,19.177,16.677C19.224,16.630,19.250,16.566,19.250,16.500L19.250,13.000C19.250,12.934,19.224,12.870,19.177,12.823C19.130,12.776,19.066,12.750,19.000,12.750L14.750,12.750L14.750,16.500C14.750,16.566,14.776,16.630,14.823,16.677C14.870,16.724,14.934,16.750,15.000,16.750L19.000,16.750ZZM13.250,16.500C13.250,16.964,13.434,17.409,13.763,17.737C14.091,18.066,14.536,18.250,15.000,18.250L19.000,18.250C19.464,18.250,19.909,18.066,20.237,17.737C20.566,17.409,20.750,16.964,20.750,16.500L20.750,13.000C20.750,12.536,20.566,12.091,20.237,11.763C19.909,11.434,19.464,11.250,19.000,11.250L14.788,11.250C14.871,10.476,15.095,9.858,15.485,9.311C16.008,8.579,16.884,7.896,18.335,7.171C18.706,6.986,18.856,6.535,18.671,6.165C18.486,5.794,18.035,5.644,17.665,5.829C16.116,6.604,14.992,7.421,14.265,8.439C13.664,9.280,13.370,10.206,13.281,11.250L13.250,11.250L13.250,16.500ZZM9.000,16.750C9.066,16.750,9.130,16.724,9.177,16.677C9.224,16.630,9.250,16.566,9.250,16.500L9.250,13.000C9.250,12.934,9.224,12.870,9.177,12.823C9.130,12.776,9.066,12.750,9.000,12.750L4.750,12.750L4.750,16.500C4.750,16.566,4.776,16.630,4.823,16.677C4.870,16.724,4.934,16.750,5.000,16.750L9.000,16.750ZZM3.250,16.500C3.250,16.964,3.434,17.409,3.763,17.737C4.091,18.066,4.536,18.250,5.000,18.250L9.000,18.250C9.464,18.250,9.909,18.066,10.237,17.737C10.566,17.409,10.750,16.964,10.750,16.500L10.750,13.000C10.750,12.536,10.566,12.091,10.237,11.763C9.909,11.434,9.464,11.250,9.000,11.250L4.787,11.250C4.871,10.476,5.095,9.858,5.485,9.311C6.008,8.579,6.884,7.896,8.335,7.171C8.706,6.986,8.856,6.535,8.671,6.165C8.486,5.794,8.035,5.644,7.665,5.829C6.116,6.604,4.992,7.421,4.265,8.439C3.664,9.280,3.370,10.206,3.281,11.250L3.250,11.250L3.250,16.500ZZ"
					  style="fill: #ffcc00;"/>
			</g>
		</g>
	</g>
</svg>
