<svg xmlns:xlink="http://www.w3.org/1999/xlink" width="24" xmlns="http://www.w3.org/2000/svg" height="24" id="screenshot-cf2f4ecb-3e87-809c-8001-de2c8d489f33" viewBox="0 0 24 24" style="-webkit-print-color-adjust: exact;" fill="none" version="1.1"><g xmlns:xlink="http://www.w3.org/1999/xlink" width="24" xml:space="preserve" height="24" id="shape-cf2f4ecb-3e87-809c-8001-de2c8d489f33" style="fill-rule: evenodd; clip-rule: evenodd; stroke-linejoin: round; stroke-miterlimit: 2; fill: #f90;" ry="0" rx="0" version="1.1"><g id="shape-cf2f4ecb-3e87-809c-8001-de2c8d497743" rx="0" ry="0" style="fill: #f90;"><g id="shape-cf2f4ecb-3e87-809c-8001-de2c8d498bfe" rx="0" ry="0" style="fill: #f90;"><g id="shape-cf2f4ecb-3e87-809c-8001-de2c8d4a05c1"><g class="fills" id="fills-cf2f4ecb-3e87-809c-8001-de2c8d4a05c1"><rect rx="0" ry="0" x="0" y="0" transform="matrix(1.000000, 0.000000, 0.000000, 1.000000, 0.000000, 0.000000)" width="24" height="24" style="fill: none;"/></g></g><g id="shape-cf2f4ecb-3e87-809c-8001-de2c8d4a9f67" rx="0" ry="0" style="fill: #f90;"><g id="shape-cf2f4ecb-3e87-809c-8001-de2c8d4acf9c" rx="0" ry="0" style="fill: #f90;"><g id="shape-cf2f4ecb-3e87-809c-8001-de2c8d4bfc41"><g class="fills" id="fills-cf2f4ecb-3e87-809c-8001-de2c8d4bfc41"><path rx="0" ry="0" d="M1.250,17.000L1.250,7.000C1.250,4.394,3.394,2.250,6.000,2.250L9.900,2.250C10.641,2.250,11.250,2.859,11.250,3.600L11.250,20.400C11.250,21.141,10.641,21.750,9.900,21.750L6.000,21.750C3.394,21.750,1.250,19.606,1.250,17.000ZZM9.750,20.250L9.750,3.750L6.000,3.750C4.217,3.750,2.750,5.217,2.750,7.000L2.750,17.000C2.750,18.783,4.217,20.250,6.000,20.250L9.750,20.250ZZM6.500,8.750C5.540,8.750,4.750,7.960,4.750,7.000C4.750,6.040,5.540,5.250,6.500,5.250C7.460,5.250,8.250,6.040,8.250,7.000C8.250,7.960,7.460,8.750,6.500,8.750ZZM22.750,17.000C22.750,19.606,20.606,21.750,18.000,21.750L14.100,21.750C13.359,21.750,12.750,21.141,12.750,20.400L12.750,3.600C12.750,2.859,13.359,2.250,14.100,2.250L18.000,2.250C20.606,2.250,22.750,4.394,22.750,7.000L22.750,17.000ZZM14.250,3.750L14.250,20.250L18.000,20.250C19.783,20.250,21.250,18.783,21.250,17.000L21.250,7.000C21.250,5.217,19.783,3.750,18.000,3.750L14.250,3.750ZZM17.500,14.750C16.540,14.750,15.750,13.960,15.750,13.000C15.750,12.040,16.540,11.250,17.500,11.250C18.460,11.250,19.250,12.040,19.250,13.000C19.250,13.960,18.460,14.750,17.500,14.750ZZ"/></g></g></g></g></g></g></g></svg>
