<svg xmlns:xlink="http://www.w3.org/1999/xlink" width="24" xmlns="http://www.w3.org/2000/svg" height="24" id="screenshot-cf2f4ecb-3e87-809c-8001-de2c8d543836" viewBox="0 0 24 24" style="-webkit-print-color-adjust: exact;" fill="none" version="1.1"><g xmlns:xlink="http://www.w3.org/1999/xlink" width="24" xml:space="preserve" height="24" id="shape-cf2f4ecb-3e87-809c-8001-de2c8d543836" style="fill-rule: evenodd; clip-rule: evenodd; stroke-linejoin: round; stroke-miterlimit: 2; fill: rgb(0, 0, 0);" ry="0" rx="0" version="1.1"><g id="shape-cf2f4ecb-3e87-809c-8001-de2c8d5518c5" rx="0" ry="0" style="fill: rgb(0, 0, 0);"><g id="shape-cf2f4ecb-3e87-809c-8001-de2c8d55b249" rx="0" ry="0" style="fill: rgb(0, 0, 0);"><g id="shape-cf2f4ecb-3e87-809c-8001-de2c8d55d890"><g class="fills" id="fills-cf2f4ecb-3e87-809c-8001-de2c8d55d890"><rect rx="0" ry="0" x="0" y="0" transform="matrix(1.000000, 0.000000, 0.000000, 1.000000, 0.000000, 0.000000)" width="24" height="24" style="fill: none;"/></g></g><g id="shape-cf2f4ecb-3e87-809c-8001-de2c8d56577a" rx="0" ry="0" style="fill: rgb(0, 0, 0);"><g id="shape-cf2f4ecb-3e87-809c-8001-de2c8d56f29b" rx="0" ry="0" style="fill: rgb(0, 0, 0);"><g id="shape-cf2f4ecb-3e87-809c-8001-de2c8d57b9a3"><g class="fills" id="fills-cf2f4ecb-3e87-809c-8001-de2c8d57b9a3"><path rx="0" ry="0" d="M4.250,20.400L4.250,3.600C4.250,2.859,4.859,2.250,5.600,2.250L18.400,2.250C19.141,2.250,19.750,2.859,19.750,3.600L19.750,20.400C19.750,21.141,19.141,21.750,18.400,21.750L5.600,21.750C4.859,21.750,4.250,21.141,4.250,20.400ZZM5.750,3.750L5.750,20.250L18.250,20.250L18.250,3.750L5.750,3.750ZZM12.005,16.260C12.419,16.260,12.755,16.596,12.755,17.010C12.755,17.424,12.419,17.760,12.005,17.760C11.591,17.760,11.255,17.424,11.255,17.010C11.255,16.596,11.591,16.260,12.005,16.260ZZ"/></g></g></g></g></g></g></g></svg>