<svg xmlns:xlink="http://www.w3.org/1999/xlink" width="24" xmlns="http://www.w3.org/2000/svg" height="24" id="screenshot-cf2f4ecb-3e87-809c-8001-de2c8d60229a" viewBox="0 0 24 24" style="-webkit-print-color-adjust: exact;" fill="none" version="1.1"><g xmlns:xlink="http://www.w3.org/1999/xlink" width="24" xml:space="preserve" height="24" id="shape-cf2f4ecb-3e87-809c-8001-de2c8d60229a" style="fill-rule: evenodd; clip-rule: evenodd; stroke-linejoin: round; stroke-miterlimit: 2; fill: rgb(0, 0, 0);" ry="0" rx="0" version="1.1"><g id="shape-cf2f4ecb-3e87-809c-8001-de2c8d60ce60" rx="0" ry="0" style="fill: rgb(0, 0, 0);"><g id="shape-cf2f4ecb-3e87-809c-8001-de2c8d6122bd" rx="0" ry="0" style="fill: rgb(0, 0, 0);"><g id="shape-cf2f4ecb-3e87-809c-8001-de2c8d61df30"><g class="fills" id="fills-cf2f4ecb-3e87-809c-8001-de2c8d61df30"><rect rx="0" ry="0" x="0" y="0" transform="matrix(1.000000, 0.000000, 0.000000, 1.000000, 0.000000, 0.000000)" width="24" height="24" style="fill: none;"/></g></g><g id="shape-cf2f4ecb-3e87-809c-8001-de2c8d624681" rx="0" ry="0" style="fill: rgb(0, 0, 0);"><g id="shape-cf2f4ecb-3e87-809c-8001-de2c8d62c7c8" rx="0" ry="0" style="fill: rgb(0, 0, 0);"><g id="shape-cf2f4ecb-3e87-809c-8001-de2c8d63517e"><g class="fills" id="fills-cf2f4ecb-3e87-809c-8001-de2c8d63517e"><path rx="0" ry="0" d="M7.000,21.750C6.586,21.750,6.250,21.414,6.250,21.000C6.250,20.586,6.586,20.250,7.000,20.250L17.000,20.250C17.414,20.250,17.750,20.586,17.750,21.000C17.750,21.414,17.414,21.750,17.000,21.750L7.000,21.750ZZM1.250,16.400L1.250,3.600C1.250,2.859,1.859,2.250,2.600,2.250L21.400,2.250C22.141,2.250,22.750,2.859,22.750,3.600L22.750,16.400C22.750,17.141,22.141,17.750,21.400,17.750L2.600,17.750C1.859,17.750,1.250,17.141,1.250,16.400ZZM2.750,3.750L2.750,16.250L21.250,16.250L21.250,3.750L2.750,3.750ZZ"/></g></g></g></g></g></g></g></svg>