<?xml version="1.0" encoding="UTF-8" standalone="no"?>
<!DOCTYPE svg PUBLIC "-//W3C//DTD SVG 1.1//EN" "http://www.w3.org/Graphics/SVG/1.1/DTD/svg11.dtd">
<svg width="100%" height="100%" viewBox="0 0 24 24" version="1.1" xmlns="http://www.w3.org/2000/svg" xmlns:xlink="http://www.w3.org/1999/xlink" xml:space="preserve" xmlns:serif="http://www.serif.com/" style="fill-rule:evenodd;clip-rule:evenodd;stroke-linejoin:round;stroke-miterlimit:2;">
    <path d="M7,2.25L21,2.25C21.414,2.25 21.75,2.586 21.75,3L21.75,12C21.75,12.199 21.671,12.39 21.53,12.53L15.53,18.53C15.39,18.671 15.199,18.75 15,18.75L12.263,18.75L7.469,22.586C7.243,22.766 6.935,22.801 6.675,22.676C6.415,22.551 6.25,22.288 6.25,22L6.25,18.75L3,18.75C2.586,18.75 2.25,18.414 2.25,18L2.25,7C2.25,6.801 2.329,6.61 2.47,6.47L6.47,2.47C6.608,2.332 6.797,2.25 7,2.25ZM6.25,4.811L3.75,7.311L3.75,17.25L7,17.25C7.414,17.25 7.75,17.586 7.75,18L7.75,20.44L11.531,17.414C11.664,17.308 11.83,17.25 12,17.25L14.689,17.25L17.189,14.75L13.815,14.75L10.399,17.117C10.169,17.276 9.868,17.294 9.62,17.162C9.373,17.031 9.219,16.772 9.222,16.492L9.242,14.75L7,14.75C6.586,14.75 6.25,14.414 6.25,14L6.25,4.811ZM18.689,13.25L20.25,11.689L20.25,3.75L7.75,3.75L7.75,13.25L10,13.25C10.2,13.25 10.392,13.33 10.533,13.473C10.674,13.615 10.752,13.808 10.75,14.008L10.738,15.057L13.154,13.383C13.279,13.297 13.428,13.25 13.581,13.25L18.689,13.25ZM16.25,7C16.25,6.586 16.586,6.25 17,6.25C17.414,6.25 17.75,6.586 17.75,7L17.75,10C17.75,10.414 17.414,10.75 17,10.75C16.586,10.75 16.25,10.414 16.25,10L16.25,7ZM12.25,7C12.25,6.586 12.586,6.25 13,6.25C13.414,6.25 13.75,6.586 13.75,7L13.75,10C13.75,10.414 13.414,10.75 13,10.75C12.586,10.75 12.25,10.414 12.25,10L12.25,7Z" style="fill:rgb(135,94,246);"/>
    <path d="M16.25,7C16.25,6.586 16.586,6.25 17,6.25C17.414,6.25 17.75,6.586 17.75,7L17.75,10C17.75,10.414 17.414,10.75 17,10.75C16.586,10.75 16.25,10.414 16.25,10L16.25,7ZM12.25,7C12.25,6.586 12.586,6.25 13,6.25C13.414,6.25 13.75,6.586 13.75,7L13.75,10C13.75,10.414 13.414,10.75 13,10.75C12.586,10.75 12.25,10.414 12.25,10L12.25,7Z"/>
</svg>
