<svg xmlns:xlink="http://www.w3.org/1999/xlink" width="24" xmlns="http://www.w3.org/2000/svg" height="24" id="screenshot-cf2f4ecb-3e87-809c-8001-de0cc24d7ebb" viewBox="0 0 24 24" style="-webkit-print-color-adjust: exact;" fill="none" version="1.1"><g xmlns:xlink="http://www.w3.org/1999/xlink" width="24" xml:space="preserve" height="24" id="shape-cf2f4ecb-3e87-809c-8001-de0cc24d7ebb" style="fill-rule: evenodd; clip-rule: evenodd; stroke-linejoin: round; stroke-miterlimit: 2; fill: rgb(0, 0, 0);" ry="0" rx="0" version="1.1"><g id="shape-cf2f4ecb-3e87-809c-8001-de0cc24e1027" rx="0" ry="0" style="fill: rgb(0, 0, 0);"><g id="shape-cf2f4ecb-3e87-809c-8001-de0cc24e4404" rx="0" ry="0" style="fill: rgb(0, 0, 0);"><g id="shape-cf2f4ecb-3e87-809c-8001-de0cc24eee98"><g class="fills" id="fills-cf2f4ecb-3e87-809c-8001-de0cc24eee98"><rect rx="0" ry="0" x="0" y="0.0000041390499063709285" transform="matrix(1.000000, 0.000000, 0.000000, 1.000000, 0.000000, 0.000000)" width="24" height="24" style="fill: none;"/></g></g><g id="shape-cf2f4ecb-3e87-809c-8001-de0cc24f4ba6" rx="0" ry="0" style="fill: rgb(0, 0, 0);"><g id="shape-cf2f4ecb-3e87-809c-8001-de0cc24fbcc9" rx="0" ry="0" style="fill: rgb(0, 0, 0);"><g id="shape-cf2f4ecb-3e87-809c-8001-de0cc250bc21"><g class="fills" id="fills-cf2f4ecb-3e87-809c-8001-de0cc250bc21"><path rx="0" ry="0" d="M7.000,2.250L21.000,2.250C21.414,2.250,21.750,2.586,21.750,3.000L21.750,12.000C21.750,12.199,21.671,12.390,21.530,12.530L15.530,18.530C15.390,18.671,15.199,18.750,15.000,18.750L12.263,18.750L7.469,22.586C7.243,22.766,6.935,22.801,6.675,22.676C6.415,22.551,6.250,22.288,6.250,22.000L6.250,18.750L3.000,18.750C2.586,18.750,2.250,18.414,2.250,18.000L2.250,7.000C2.250,6.801,2.329,6.610,2.470,6.470L6.470,2.470C6.608,2.332,6.797,2.250,7.000,2.250ZZM6.250,4.811L3.750,7.311L3.750,17.250L7.000,17.250C7.414,17.250,7.750,17.586,7.750,18.000L7.750,20.440L11.531,17.414C11.664,17.308,11.830,17.250,12.000,17.250L14.689,17.250L17.189,14.750L13.815,14.750L10.399,17.117C10.169,17.276,9.868,17.294,9.620,17.162C9.373,17.031,9.219,16.772,9.222,16.492L9.242,14.750L7.000,14.750C6.586,14.750,6.250,14.414,6.250,14.000L6.250,4.811ZZM18.689,13.250L20.250,11.689L20.250,3.750L7.750,3.750L7.750,13.250L10.000,13.250C10.200,13.250,10.392,13.330,10.533,13.473C10.674,13.615,10.752,13.808,10.750,14.008L10.738,15.057L13.154,13.383C13.279,13.297,13.428,13.250,13.581,13.250L18.689,13.250ZZM16.250,7.000C16.250,6.586,16.586,6.250,17.000,6.250C17.414,6.250,17.750,6.586,17.750,7.000L17.750,10.000C17.750,10.414,17.414,10.750,17.000,10.750C16.586,10.750,16.250,10.414,16.250,10.000L16.250,7.000ZZM12.250,7.000C12.250,6.586,12.586,6.250,13.000,6.250C13.414,6.250,13.750,6.586,13.750,7.000L13.750,10.000C13.750,10.414,13.414,10.750,13.000,10.750C12.586,10.750,12.250,10.414,12.250,10.000L12.250,7.000ZZ"/></g></g></g></g></g></g></g></svg>