<?xml version="1.0" encoding="UTF-8" standalone="no"?>
<!DOCTYPE svg PUBLIC "-//W3C//DTD SVG 1.1//EN" "http://www.w3.org/Graphics/SVG/1.1/DTD/svg11.dtd">
<svg width="100%" height="100%" viewBox="0 0 24 24" version="1.1" xmlns="http://www.w3.org/2000/svg" xmlns:xlink="http://www.w3.org/1999/xlink" xml:space="preserve" xmlns:serif="http://www.serif.com/" style="fill-rule:evenodd;clip-rule:evenodd;stroke-linejoin:round;stroke-miterlimit:2;">
    <rect id="veedeo" x="0" y="0" width="24" height="24" style="fill:none;"/>
    <g id="veedeo1" serif:id="veedeo">
        <g id="veedeo2" serif:id="veedeo">
            <path d="M4.07,4.742C4.35,4.437 4.824,4.416 5.13,4.695C5.435,4.975 5.456,5.45 5.176,5.755C3.669,7.4 2.75,9.593 2.75,12C2.75,17.109 6.891,21.25 12,21.25C14.346,21.25 16.488,20.377 18.118,18.938C18.429,18.664 18.903,18.693 19.177,19.004C19.451,19.314 19.421,19.788 19.111,20.062C17.216,21.735 14.726,22.75 12,22.75C6.063,22.75 1.25,17.937 1.25,12C1.25,9.202 2.319,6.654 4.07,4.742ZM21.999,15.953C21.847,16.338 21.411,16.527 21.026,16.375C20.641,16.223 20.452,15.786 20.605,15.402C21.021,14.349 21.25,13.201 21.25,12C21.25,6.891 17.109,2.75 12,2.75C10.861,2.75 9.77,2.956 8.763,3.332C8.375,3.477 7.942,3.28 7.797,2.892C7.653,2.504 7.85,2.072 8.237,1.927C9.409,1.489 10.676,1.25 12,1.25C17.937,1.25 22.75,6.063 22.75,12C22.75,13.396 22.484,14.73 21.999,15.953ZM11.317,7.977L15.693,10.894L15.941,11.108L16.127,11.373L16.244,11.674L16.285,12L16.244,12.326L16.127,12.627L15.941,12.892L15.693,13.106L11.317,16.023L10.993,16.181L10.644,16.245L10.291,16.215L9.952,16.089L9.66,15.877L9.439,15.6L9.299,15.274L9.25,14.917L9.25,9.083L9.299,8.726L9.439,8.4L9.66,8.123L9.952,7.911L10.291,7.785L10.644,7.755L10.993,7.819L11.317,7.977ZM10.75,14.599L14.648,12L10.75,9.401L10.75,14.599Z" style="fill:white;"/>
        </g>
    </g>
</svg>
