<?xml version="1.0" encoding="UTF-8" standalone="no"?>
<!DOCTYPE svg PUBLIC "-//W3C//DTD SVG 1.1//EN" "http://www.w3.org/Graphics/SVG/1.1/DTD/svg11.dtd">
<svg width="100%" height="100%" viewBox="0 0 24 24" version="1.1" xmlns="http://www.w3.org/2000/svg" xmlns:xlink="http://www.w3.org/1999/xlink" xml:space="preserve" xmlns:serif="http://www.serif.com/" style="fill-rule:evenodd;clip-rule:evenodd;stroke-linecap:round;stroke-linejoin:round;">
    <path d="M12,22C17.523,22 22,17.523 22,12C22,6.477 17.523,2 12,2C6.477,2 2,6.477 2,12C2,13.821 2.487,15.529 3.338,17L2.5,21.5L7,20.662C8.471,21.513 10.179,22 12,22Z" style="fill:none;fill-rule:nonzero;stroke:#ffffff;stroke-width:1.5px;"/>
    <path d="M9.5,9.5C9.65,11.147 10.253,12.8 14.5,14.5" style="fill:none;stroke:#ffffff;stroke-width:1.5px;stroke-miterlimit:1.5;"/>
    <g transform="matrix(-1,0,0,1,24,0)">
        <path d="M9.5,9.5C9.65,11.147 10.253,12.8 14.5,14.5" style="fill:none;stroke:#ffffff;stroke-width:1.5px;stroke-miterlimit:1.5;"/>
    </g>
</svg>
