<?xml version="1.0" encoding="UTF-8" standalone="no"?>
<!DOCTYPE svg PUBLIC "-//W3C//DTD SVG 1.1//EN" "http://www.w3.org/Graphics/SVG/1.1/DTD/svg11.dtd">
<svg width="100%" height="100%" viewBox="0 0 24 24" version="1.1" xmlns="http://www.w3.org/2000/svg" xmlns:xlink="http://www.w3.org/1999/xlink" xml:space="preserve" xmlns:serif="http://www.serif.com/" style="fill-rule:evenodd;clip-rule:evenodd;stroke-linejoin:round;stroke-miterlimit:2;">
    <path d="M1.25,12.708L1.25,11.292C1.25,9.802 1.253,8.684 1.37,7.818C1.509,6.787 1.812,6.067 2.367,5.495C2.924,4.923 3.63,4.6 4.645,4.432C5.496,4.292 6.598,4.257 8.067,4.215C9.424,4.177 10.812,4.15 12,4.15C13.187,4.15 14.575,4.177 15.933,4.215C17.402,4.257 18.504,4.292 19.355,4.432C20.37,4.6 21.076,4.923 21.632,5.495C22.188,6.067 22.491,6.787 22.63,7.819C22.747,8.684 22.75,9.802 22.75,11.292L22.75,12.707C22.75,14.198 22.747,15.316 22.63,16.181C22.491,17.213 22.188,17.932 21.633,18.505C21.076,19.077 20.371,19.399 19.356,19.567C18.504,19.708 17.403,19.742 15.934,19.784C14.576,19.823 13.189,19.85 12,19.85C10.812,19.85 9.425,19.823 8.067,19.784C6.598,19.742 5.496,19.708 4.645,19.567C3.63,19.4 2.924,19.077 2.367,18.505C1.811,17.932 1.509,17.212 1.37,16.181C1.253,15.316 1.25,14.197 1.25,12.708ZM2.75,12.708C2.75,14.112 2.747,15.165 2.856,15.981C2.944,16.63 3.093,17.099 3.443,17.459C3.792,17.819 4.252,17.982 4.889,18.088C5.69,18.22 6.727,18.246 8.109,18.284C9.453,18.323 10.826,18.35 12,18.35C13.175,18.35 14.548,18.323 15.891,18.284C17.273,18.246 18.31,18.22 19.111,18.087C19.748,17.982 20.208,17.818 20.557,17.459C20.907,17.099 21.056,16.63 21.144,15.981C21.253,15.166 21.25,14.112 21.25,12.707L21.25,11.292C21.25,9.888 21.253,8.834 21.143,8.019C21.056,7.37 20.906,6.9 20.556,6.541C20.207,6.181 19.747,6.018 19.11,5.912C18.31,5.78 17.273,5.754 15.891,5.715C14.547,5.677 13.175,5.65 12,5.65C10.824,5.65 9.452,5.677 8.109,5.715C6.727,5.754 5.69,5.78 4.889,5.912C4.252,6.018 3.792,6.181 3.443,6.541C3.093,6.9 2.944,7.37 2.856,8.019C2.747,8.834 2.75,9.887 2.75,11.292L2.75,12.708Z" style="fill:rgb(255,0,0);"/>
    <path d="M14.372,12.651L10.872,14.651C10.64,14.784 10.355,14.783 10.124,14.649C9.892,14.514 9.75,14.267 9.75,14L9.75,10C9.75,9.733 9.892,9.486 10.124,9.351C10.355,9.217 10.64,9.216 10.872,9.349L14.372,11.349C14.606,11.482 14.75,11.731 14.75,12C14.75,12.269 14.606,12.518 14.372,12.651Z"/>
</svg>
