<svg xmlns:xlink="http://www.w3.org/1999/xlink" width="24" xmlns="http://www.w3.org/2000/svg" height="24" id="screenshot-cf2f4ecb-3e87-809c-8001-de0cc2585ba0" viewBox="0 0 24 24" style="-webkit-print-color-adjust: exact;" fill="none" version="1.1"><g xmlns:xlink="http://www.w3.org/1999/xlink" width="24" xml:space="preserve" height="24" id="shape-cf2f4ecb-3e87-809c-8001-de0cc2585ba0" style="fill-rule: evenodd; clip-rule: evenodd; stroke-linejoin: round; stroke-miterlimit: 2; fill: #fff;" ry="0" rx="0" version="1.1"><g id="shape-cf2f4ecb-3e87-809c-8001-de0cc2592fe9" rx="0" ry="0" style="fill: #fff;"><g id="shape-cf2f4ecb-3e87-809c-8001-de0cc259ae05" rx="0" ry="0" style="fill: #fff;"><g id="shape-cf2f4ecb-3e87-809c-8001-de0cc259c11f"><g class="fills" id="fills-cf2f4ecb-3e87-809c-8001-de0cc259c11f"><rect rx="0" ry="0" x="0" y="0.0000041390499063709285" transform="matrix(1.000000, 0.000000, 0.000000, 1.000000, 0.000000, 0.000000)" width="24" height="24" style="fill: none;"/></g></g><g id="shape-cf2f4ecb-3e87-809c-8001-de0cc25a6267" rx="0" ry="0" style="fill: #fff;"><g id="shape-cf2f4ecb-3e87-809c-8001-de0cc25b7b6f"><g class="fills" id="fills-cf2f4ecb-3e87-809c-8001-de0cc25b7b6f"><path rx="0" ry="0" d="M1.250,12.708L1.250,11.292C1.250,9.802,1.253,8.684,1.370,7.818C1.509,6.787,1.812,6.067,2.367,5.495C2.924,4.923,3.630,4.600,4.645,4.432C5.496,4.292,6.598,4.257,8.067,4.215C9.424,4.177,10.812,4.150,12.000,4.150C13.187,4.150,14.575,4.177,15.933,4.215C17.402,4.257,18.504,4.292,19.355,4.432C20.370,4.600,21.076,4.923,21.632,5.495C22.188,6.067,22.491,6.787,22.630,7.819C22.747,8.684,22.750,9.802,22.750,11.292L22.750,12.707C22.750,14.198,22.747,15.316,22.630,16.181C22.491,17.213,22.188,17.932,21.633,18.505C21.076,19.077,20.371,19.399,19.356,19.567C18.504,19.708,17.403,19.742,15.934,19.784C14.576,19.823,13.189,19.850,12.000,19.850C10.812,19.850,9.425,19.823,8.067,19.784C6.598,19.742,5.496,19.708,4.645,19.567C3.630,19.400,2.924,19.077,2.367,18.505C1.811,17.932,1.509,17.212,1.370,16.181C1.253,15.316,1.250,14.197,1.250,12.708ZZM2.750,12.708C2.750,14.112,2.747,15.165,2.856,15.981C2.944,16.630,3.093,17.099,3.443,17.459C3.792,17.819,4.252,17.982,4.889,18.088C5.690,18.220,6.727,18.246,8.109,18.284C9.453,18.323,10.826,18.350,12.000,18.350C13.175,18.350,14.548,18.323,15.891,18.284C17.273,18.246,18.310,18.220,19.111,18.087C19.748,17.982,20.208,17.818,20.557,17.459C20.907,17.099,21.056,16.630,21.144,15.981C21.253,15.166,21.250,14.112,21.250,12.707L21.250,11.292C21.250,9.888,21.253,8.834,21.143,8.019C21.056,7.370,20.906,6.900,20.556,6.541C20.207,6.181,19.747,6.018,19.110,5.912C18.310,5.780,17.273,5.754,15.891,5.715C14.547,5.677,13.175,5.650,12.000,5.650C10.824,5.650,9.452,5.677,8.109,5.715C6.727,5.754,5.690,5.780,4.889,5.912C4.252,6.018,3.792,6.181,3.443,6.541C3.093,6.900,2.944,7.370,2.856,8.019C2.747,8.834,2.750,9.887,2.750,11.292L2.750,12.708ZZM14.372,12.651L10.872,14.651C10.640,14.784,10.355,14.783,10.124,14.649C9.892,14.514,9.750,14.267,9.750,14.000L9.750,10.000C9.750,9.733,9.892,9.486,10.124,9.351C10.355,9.217,10.640,9.216,10.872,9.349L14.372,11.349C14.606,11.482,14.750,11.731,14.750,12.000C14.750,12.269,14.606,12.518,14.372,12.651ZZ"/></g></g></g></g></g></g></svg>
