<svg xmlns:xlink="http://www.w3.org/1999/xlink" width="100" xmlns="http://www.w3.org/2000/svg" height="100" id="screenshot-6fc4f1b5-e965-802d-8001-8e4b23eb79a0" viewBox="-0 -0 100 100" style="-webkit-print-color-adjust: exact;" fill="none" version="1.1"><g id="shape-6fc4f1b5-e965-802d-8001-8e4b23eb79a0"><defs><clipPath id="frame-clip-6fc4f1b5-e965-802d-8001-8e4b23eb79a0-846c7738-e568-80bf-8001-8e4b7cdce512" class="frame-clip"><rect rx="0" ry="0" x="0" y="0" width="99.99999998303326" height="99.99999998704233" transform="matrix(1,0,0,1,0.000001,-0.000001)" style="fill: rgb(255, 255, 255); fill-opacity: 1;"/></clipPath></defs><g clip-path="url(#frame-clip-6fc4f1b5-e965-802d-8001-8e4b23eb79a0-846c7738-e568-80bf-8001-8e4b7cdce512)"><clipPath id="frame-clip-6fc4f1b5-e965-802d-8001-8e4b23eb79a0-846c7738-e568-80bf-8001-8e4b7cdce512" class="frame-clip"><rect rx="0" ry="0" x="0" y="0" width="99.99999998303326" height="99.99999998704233" transform="matrix(1,0,0,1,0.000001,-0.000001)" style="fill: rgb(255, 255, 255); fill-opacity: 1;"/></clipPath><g id="fills-6fc4f1b5-e965-802d-8001-8e4b23eb79a0"><rect width="99.99999998303326" height="99.99999998704233" class="frame-background" x="0" transform="matrix(1,0,0,1,0.000001,-0.000001)" style="fill: rgb(255, 255, 255); fill-opacity: 1;" ry="0" rx="0" y="0"/></g><g class="frame-children"><g id="shape-6fc4f1b5-e965-802d-8001-8e4b5fabf2cb" width="75" height="79" rx="0" ry="0" style="fill: rgb(0, 0, 0);"><g id="shape-6fc4f1b5-e965-802d-8001-8e4b5faec6bf"><defs><linearGradient x1="37.0692" y1="0" x2="37.0692" y2="79" id="846c7738-e568-80bf-8001-8e4b7ce09176-paint0_linear_549_34" gradientUnits="userSpaceOnUse" gradientTransform="matrix(1,0,0,1,12.5,10.5)"><stop stop-color="#6364FF"/><stop offset="1" stop-color="#563ACC"/></linearGradient></defs><g id="fills-6fc4f1b5-e965-802d-8001-8e4b5faec6bf"><path fill="url(#846c7738-e568-80bf-8001-8e4b7ce09176-paint0_linear_549_34)" rx="0" ry="0" d="M86.339,27.99C85.197,19.502,77.799,12.812,69.03,11.516C67.55,11.297,61.944,10.5,48.958,10.5L48.861,10.5C35.872,10.5,33.085,11.297,31.605,11.516C23.08,12.776,15.294,18.787,13.405,27.376C12.496,31.606,12.399,36.295,12.568,40.596C12.809,46.765,12.856,52.923,13.416,59.066C13.803,63.147,14.479,67.196,15.438,71.181C17.233,78.542,24.502,84.668,31.623,87.167C39.248,89.773,47.447,90.205,55.304,88.416C56.168,88.215,57.022,87.982,57.864,87.716C59.775,87.109,62.012,86.43,63.657,85.238C63.68,85.222,63.698,85.2,63.711,85.175C63.724,85.15,63.732,85.123,63.732,85.095L63.732,79.142C63.732,79.115,63.726,79.09,63.714,79.066C63.702,79.043,63.686,79.022,63.665,79.006C63.644,78.99,63.62,78.978,63.595,78.973C63.569,78.967,63.543,78.967,63.517,78.973C58.483,80.175,53.325,80.778,48.15,80.768C39.244,80.768,36.849,76.542,36.163,74.783C35.611,73.262,35.261,71.676,35.121,70.065C35.12,70.037,35.125,70.01,35.136,69.986C35.147,69.961,35.163,69.939,35.184,69.922C35.205,69.905,35.23,69.893,35.256,69.887C35.283,69.881,35.31,69.882,35.337,69.889C40.286,71.083,45.36,71.685,50.452,71.684C51.677,71.684,52.898,71.684,54.122,71.652C59.243,71.508,64.641,71.246,69.68,70.262C69.805,70.237,69.931,70.215,70.039,70.183C77.986,68.657,85.549,63.867,86.318,51.738C86.346,51.261,86.418,46.736,86.418,46.241C86.422,44.557,86.961,34.295,86.339,27.99ZZ" style="fill: url(&quot;#846c7738-e568-80bf-8001-8e4b7ce09176-paint0_linear_549_34&quot;);"/></g></g><g id="shape-6fc4f1b5-e965-802d-8001-8e4b5fafb37a"><g id="fills-6fc4f1b5-e965-802d-8001-8e4b5fafb37a"><path rx="0" ry="0" d="M73.748,37.526L73.748,58.614L65.392,58.614L65.392,38.147C65.392,33.839,63.596,31.641,59.944,31.641C55.929,31.641,53.918,34.241,53.918,39.375L53.918,50.578L45.611,50.578L45.611,39.375C45.611,34.241,43.596,31.641,39.581,31.641C35.951,31.641,34.137,33.839,34.137,38.147L34.137,58.614L25.784,58.614L25.784,37.526C25.784,33.218,26.884,29.795,29.084,27.257C31.354,24.726,34.331,23.426,38.026,23.426C42.304,23.426,45.536,25.07,47.69,28.356L49.77,31.846L51.853,28.356C54.007,25.07,57.239,23.426,61.509,23.426C65.201,23.426,68.178,24.726,70.455,27.257C72.653,29.792,73.751,33.215,73.748,37.526ZZ" style="fill: rgb(255, 255, 255);"/></g></g></g></g></g></g></svg>