<svg width="40" height="40" viewBox="0 0 40 40" fill="none" xmlns="http://www.w3.org/2000/svg">
<path fill-rule="evenodd" clip-rule="evenodd" d="M14.2279 14.227C14.5208 13.9341 14.9957 13.9341 15.2886 14.227L20.0009 18.9393L24.7132 14.227C25.0061 13.9341 25.4809 13.9341 25.7738 14.227C26.0667 14.5199 26.0667 14.9948 25.7738 15.2877L21.0616 20L25.7738 24.7123C26.0667 25.0052 26.0667 25.48 25.7738 25.7729C25.4809 26.0658 25.0061 26.0658 24.7132 25.7729L20.0009 21.0607L15.2886 25.7729C14.9957 26.0658 14.5208 26.0658 14.2279 25.7729C13.935 25.48 13.935 25.0052 14.2279 24.7123L18.9402 20L14.2279 15.2877C13.935 14.9948 13.935 14.5199 14.2279 14.227Z" fill="black"/>
</svg>
