<svg width="40" height="40" viewBox="0 0 40 40" fill="none" xmlns="http://www.w3.org/2000/svg">
<path fill-rule="evenodd" clip-rule="evenodd" d="M10.25 13C10.25 12.5858 10.5858 12.25 11 12.25H29C29.4142 12.25 29.75 12.5858 29.75 13C29.75 13.4142 29.4142 13.75 29 13.75H11C10.5858 13.75 10.25 13.4142 10.25 13Z" fill="black"/>
<path fill-rule="evenodd" clip-rule="evenodd" d="M10.25 20C10.25 19.5858 10.5858 19.25 11 19.25H29C29.4142 19.25 29.75 19.5858 29.75 20C29.75 20.4142 29.4142 20.75 29 20.75H11C10.5858 20.75 10.25 20.4142 10.25 20Z" fill="black"/>
<path fill-rule="evenodd" clip-rule="evenodd" d="M10.25 27C10.25 26.5858 10.5858 26.25 11 26.25H29C29.4142 26.25 29.75 26.5858 29.75 27C29.75 27.4142 29.4142 27.75 29 27.75H11C10.5858 27.75 10.25 27.4142 10.25 27Z" fill="black"/>
</svg>
