<svg width="40" height="40" viewBox="0 0 40 40" fill="none" xmlns="http://www.w3.org/2000/svg">
<path d="M22.6661 10.5938C21.6652 10.9759 20.8056 11.6562 20.2039 12.5426L20.0595 12.7675C19.552 13.604 19.2884 14.5681 19.3016 15.5501L19.3015 15.782L19.2796 15.7812C17.904 15.7124 16.5549 15.3573 15.3197 14.7356C13.8599 14.0008 12.6045 12.9164 11.6653 11.579C11.3302 11.102 10.6029 11.1728 10.3661 11.7055L10.2629 11.955C10.2443 12.0027 10.2251 12.0536 10.2054 12.1074L10.0818 12.465C10.0178 12.6609 9.95119 12.8819 9.88488 13.1257C9.30017 15.2753 9.19794 17.5371 9.89551 19.6809L9.99239 19.9631C10.7352 22.0176 12.1903 23.7436 14.4403 25.0349L14.4915 25.063L14.2948 25.1638C12.6818 25.9519 10.8911 26.3327 9.08129 26.2607C8.292 26.2293 7.99675 27.2821 8.68726 27.6657C18.5652 33.1534 29.8015 27.1728 29.8015 15.5101L29.7904 15.1838L29.7645 14.921L29.9135 14.737C30.194 14.371 30.4756 13.9178 30.7605 13.3916C31.0103 12.93 31.248 12.4388 31.4668 11.948L31.6806 11.4533L31.7484 11.2872C32.0127 10.6228 31.2856 10.0006 30.67 10.3643L30.2429 10.6088C29.913 10.7939 29.5699 10.979 29.2324 11.151L28.7917 11.3693L28.5748 11.4712L28.3051 11.5915L28.1135 11.67C27.4599 11.0571 26.6667 10.6231 25.8005 10.4064C24.8478 10.168 23.8491 10.2031 22.9182 10.5049L22.6661 10.5938ZM25.4364 11.8616C26.1777 12.047 26.8441 12.4557 27.3456 13.0323C27.5392 13.2548 27.8453 13.3433 28.1277 13.2582L28.3155 13.1975C28.5744 13.1086 28.8671 12.9877 29.1911 12.8389L29.4085 12.736L29.4414 12.6775C29.1148 13.2808 28.8004 13.7613 28.5261 14.0614L28.4449 14.1461C28.2666 14.3218 28.1878 14.575 28.2348 14.8209C28.2784 15.0489 28.3007 15.2805 28.3015 15.5125L28.2985 15.8253C28.1219 25.0601 20.1293 30.16 12.1092 27.5364L12.0295 27.509L12.1568 27.4842C13.6911 27.1492 15.1574 26.5234 16.4727 25.6306C16.9594 25.3003 16.8937 24.5637 16.3561 24.3247C13.6209 23.1091 12.0211 21.3656 11.3219 19.2168L11.2185 18.8729C10.7728 17.26 10.8379 15.5396 11.2408 13.8751L11.3245 13.548L11.3781 13.6087C12.3068 14.6182 13.4128 15.455 14.6453 16.0754C16.326 16.9214 18.1899 17.3386 20.0709 17.2898C20.4774 17.2793 20.8015 16.9467 20.8015 16.5401V15.5401C20.7912 14.7659 21.0158 14.0172 21.445 13.385C21.8741 12.7529 22.4871 12.2677 23.201 11.9952C23.9149 11.7227 24.6952 11.6761 25.4364 11.8616Z" fill="black"/>
</svg>
