<svg width="100" height="100" viewBox="0 0 100 100" fill="none" xmlns="http://www.w3.org/2000/svg">
<rect width="100" height="100" fill="white"/>
<g clip-path="url(#clip0_306:2)">
<circle cx="49.9901" cy="49.9901" r="36.12" stroke="#262D48" stroke-width="9"/>
<path d="M63.152 63.1514C36.5155 89.7871 9.0352 105.49 1.77105 98.2259C-2.81663 93.6378 1.77334 80.978 12.4777 65.5669C13.7512 68.6064 15.3924 71.4783 17.3644 74.1186C12.9782 80.7995 11.1074 85.6405 12.7317 87.2652C16.3642 90.8973 35.9936 77.1567 56.5753 56.5751C77.1569 35.9938 90.8978 16.3639 87.2653 12.7319C85.6402 11.1071 80.7993 12.9783 74.1188 17.3642C71.4786 15.3922 68.6068 13.7512 65.5675 12.4778C80.9786 1.77383 93.6384 -2.81691 98.226 1.77116C105.49 9.03531 89.7869 36.516 63.152 63.1514Z" fill="#A9EBEF"/>
</g>
<defs>
<clipPath id="clip0_306:2">
<rect width="100" height="100" fill="white"/>
</clipPath>
</defs>
</svg>
