<svg width="40" height="40" viewBox="0 0 40 40" fill="none" xmlns="http://www.w3.org/2000/svg">
<path d="M15.7129 14.3069C15.6245 14.3435 15.5416 14.3978 15.4697 14.4697L11.9697 17.9697C11.6768 18.2626 11.6768 18.7374 11.9697 19.0303C12.2626 19.3232 12.7374 19.3232 13.0303 19.0303L15.25 16.8107V21C15.25 23.6233 17.3766 25.75 20 25.75H27C27.4142 25.75 27.75 25.4142 27.75 25C27.75 24.5858 27.4142 24.25 27 24.25H20C18.2051 24.25 16.75 22.7949 16.75 21V16.8107L18.9697 19.0303C19.2626 19.3232 19.7374 19.3232 20.0303 19.0303C20.3232 18.7374 20.3232 18.2626 20.0303 17.9697L16.5303 14.4697C16.3851 14.3244 16.1951 14.2512 16.0048 14.25L16 14.25L15.9952 14.25C15.8953 14.2506 15.8 14.2708 15.7129 14.3069Z" fill="black"/>
</svg>
