<?xml version="1.0" encoding="UTF-8" standalone="no"?>
<!DOCTYPE svg PUBLIC "-//W3C//DTD SVG 1.1//EN" "http://www.w3.org/Graphics/SVG/1.1/DTD/svg11.dtd">
<svg width="100%" height="100%" viewBox="0 0 24 24" version="1.1" xmlns="http://www.w3.org/2000/svg" xmlns:xlink="http://www.w3.org/1999/xlink" xml:space="preserve" xmlns:serif="http://www.serif.com/" style="fill-rule:evenodd;clip-rule:evenodd;stroke-linecap:round;stroke-linejoin:round;">
    <rect id="ico-codeberg" x="0" y="0" width="24" height="24" style="fill:none;"/>
    <g id="ico-codeberg1" serif:id="ico-codeberg">
        <g transform="matrix(1,0,0,1,0,1)">
            <path d="M16,21.168C19.532,19.625 22,16.101 22,12C22,6.477 17.523,2 12,2C6.477,2 2,6.477 2,12C2,13.832 2.493,15.55 3.353,17.027" style="fill:none;fill-rule:nonzero;stroke:#fff;stroke-width:1.5px;"/>
        </g>
        <g transform="matrix(1,0,0,1,0,1)">
            <path d="M12,7L20.647,17.027" style="fill:none;stroke:#fff;stroke-width:1.5px;stroke-miterlimit:1.5;"/>
        </g>#fff
        <g transform="matrix(-1,0,0,1,24,1.00005)">
            <path d="M20.647,17.027L12,7L20.647,17.027Z" style="fill:none;stroke:#fff;stroke-width:1.5px;stroke-miterlimit:1.5;"/>
        </g>
        <g transform="matrix(1,0,0,1,0,1)">
            <path d="M16,21.168L12,7L16,21.168Z" style="fill:none;stroke:#fff;stroke-width:1.5px;stroke-miterlimit:1.5;"/>
        </g>
    </g>
</svg>
