<svg xmlns:xlink="http://www.w3.org/1999/xlink" width="24" xmlns="http://www.w3.org/2000/svg" height="24" id="screenshot-cf2f4ecb-3e87-809c-8001-de2c8d1cef85" viewBox="0 0 24 24" style="-webkit-print-color-adjust: exact;" fill="none" version="1.1"><g xmlns:xlink="http://www.w3.org/1999/xlink" width="24" xml:space="preserve" height="24" id="shape-cf2f4ecb-3e87-809c-8001-de2c8d1cef85" style="fill-rule: evenodd; clip-rule: evenodd; stroke-linejoin: round; stroke-miterlimit: 2; fill: rgb(0, 0, 0);" ry="0" rx="0" version="1.1"><g id="shape-cf2f4ecb-3e87-809c-8001-de2c8d1db7cb" rx="0" ry="0" style="fill: rgb(0, 0, 0);"><g id="shape-cf2f4ecb-3e87-809c-8001-de2c8d1e201b" rx="0" ry="0" style="fill: rgb(0, 0, 0);"><g id="shape-cf2f4ecb-3e87-809c-8001-de2c8d1e5a12"><g class="fills" id="fills-cf2f4ecb-3e87-809c-8001-de2c8d1e5a12"><rect rx="0" ry="0" x="0" y="0.0000041390499063709285" transform="matrix(1.000000, 0.000000, 0.000000, 1.000000, 0.000000, 0.000000)" width="24" height="24" style="fill: none;"/></g></g><g id="shape-cf2f4ecb-3e87-809c-8001-de2c8d1efb95" rx="0" ry="0" style="fill: rgb(0, 0, 0);"><g id="shape-cf2f4ecb-3e87-809c-8001-de2c8d1f2bcd" rx="0" ry="0" style="fill: rgb(0, 0, 0);"><g id="shape-cf2f4ecb-3e87-809c-8001-de2c8d20816a"><g class="fills" id="fills-cf2f4ecb-3e87-809c-8001-de2c8d20816a"><path rx="0" ry="0" d="M18.208,13.250C17.830,16.606,14.950,19.250,11.500,19.250L9.500,19.250C5.797,19.250,2.750,16.203,2.750,12.500L2.750,7.100C2.750,6.359,3.359,5.750,4.100,5.750L18.500,5.750C20.557,5.750,22.250,7.443,22.250,9.500C22.250,11.557,20.557,13.250,18.500,13.250L18.208,13.250ZZM18.250,7.250L18.250,11.750L18.500,11.750C19.734,11.750,20.750,10.734,20.750,9.500C20.750,8.266,19.734,7.250,18.500,7.250L18.250,7.250ZZM16.750,7.250L4.250,7.250L4.250,12.500C4.250,15.380,6.620,17.750,9.500,17.750L11.500,17.750C14.380,17.750,16.750,15.380,16.750,12.500L16.750,7.250ZZM10.500,9.181C10.922,8.903,11.420,8.751,11.933,8.750L11.935,8.750C12.645,8.750,13.324,9.040,13.822,9.557L13.823,9.558C14.312,10.068,14.584,10.748,14.583,11.454C14.585,12.160,14.312,12.840,13.824,13.350L13.822,13.351C13.002,14.202,12.206,15.088,11.356,15.907L11.351,15.911C10.859,16.377,10.080,16.359,9.610,15.873L7.178,13.352C6.166,12.302,6.165,10.608,7.177,9.558C7.669,9.043,8.352,8.750,9.065,8.750C9.579,8.750,10.078,8.902,10.500,9.181ZZM11.130,10.596C11.128,10.598,11.041,10.688,11.041,10.688C10.777,10.961,10.500,10.919,10.500,10.919C10.500,10.919,10.224,10.961,9.960,10.689L9.876,10.602L10.411,10.827L9.868,10.595C9.659,10.375,9.368,10.250,9.065,10.250C8.761,10.250,8.470,10.375,8.261,10.595L8.258,10.598C7.801,11.072,7.801,11.837,8.258,12.310L10.506,14.641C11.271,13.888,11.995,13.084,12.741,12.312C12.961,12.081,13.084,11.775,13.083,11.456L13.083,11.452C13.084,11.134,12.961,10.827,12.741,10.597C12.528,10.376,12.239,10.250,11.936,10.250C11.632,10.251,11.341,10.376,11.130,10.596ZZ"/></g></g></g></g></g></g></g></svg>