<svg xmlns:xlink="http://www.w3.org/1999/xlink" width="45" xmlns="http://www.w3.org/2000/svg" height="16" id="screenshot-286666f6-dea4-80db-8001-bfada6c0d01a" viewBox="0 0 45 16" style="-webkit-print-color-adjust: exact;" fill="none" version="1.1"><g id="shape-286666f6-dea4-80db-8001-bfada6c0d01a" rx="0" ry="0"><g id="shape-286666f6-dea4-80db-8001-bfad31366db5"><defs><clipPath id="frame-clip-286666f6-dea4-80db-8001-bfad31366db5-80320638-5d39-80df-8001-e3c404844cf2" class="frame-clip"><rect rx="0" ry="0" x="8.688513730703562e-8" y="1.2546956895675976e-7" width="44.99999999370696" height="15.999999994500289" transform="matrix(1,0,0,1,0,0)" style="opacity: 1;"/></clipPath></defs><g clip-path="url(#frame-clip-286666f6-dea4-80db-8001-bfad31366db5-80320638-5d39-80df-8001-e3c404844cf2)"><clipPath id="frame-clip-286666f6-dea4-80db-8001-bfad31366db5-80320638-5d39-80df-8001-e3c404844cf2" class="frame-clip"><rect rx="0" ry="0" x="8.688513730703562e-8" y="1.2546956895675976e-7" width="44.99999999370696" height="15.999999994500289" transform="matrix(1,0,0,1,0,0)" style="opacity: 1;"/></clipPath><g id="fills-286666f6-dea4-80db-8001-bfad31366db5"><rect width="44.99999999370696" height="15.999999994500289" class="frame-background" x="8.688513730703562e-8" transform="matrix(1,0,0,1,0,0)" style="opacity: 1;" ry="0" rx="0" y="1.2546956895675976e-7"/></g><g class="frame-children"><g id="shape-286666f6-dea4-80db-8001-bfad31366db6" width="43" height="30" rx="0" ry="0" style="fill: rgb(0, 0, 0);"><g id="shape-286666f6-dea4-80db-8001-bfad31366db8"><g id="fills-286666f6-dea4-80db-8001-bfad31366db8"><path rx="0" ry="0" d="M7.799,6.833C7.444,6.177,6.842,5.848,5.995,5.876C5.202,5.876,4.026,6.368,4.026,7.981C4.026,9.786,5.42,10.087,6.049,10.087C7.116,10.087,7.662,9.321,7.827,9.02L6.979,8.583C6.815,8.966,6.541,9.157,6.159,9.157C5.502,9.157,5.229,8.61,5.229,7.981C5.229,7.161,5.557,6.778,6.159,6.778C6.213,6.778,6.651,6.778,6.897,7.325L7.799,6.833ZZM11.709,6.833C11.354,6.177,10.78,5.848,9.932,5.876C9.112,5.876,7.936,6.368,7.936,7.981C7.936,9.813,9.33,10.087,9.959,10.087C11.163,10.087,11.682,9.102,11.737,9.02L10.889,8.583C10.725,8.966,10.452,9.157,10.069,9.157C9.412,9.157,9.139,8.61,9.139,7.981C9.139,7.161,9.467,6.778,10.069,6.778C10.123,6.778,10.561,6.778,10.834,7.325L11.709,6.833ZZM7.854,1.2C3.944,1.2,1.1,4.345,1.1,7.981C1.1,11.755,4.19,14.763,7.854,14.763C11.409,14.763,14.663,12.001,14.663,7.981C14.663,4.208,11.737,1.2,7.854,1.2ZZM7.881,13.505C4.791,13.505,2.303,10.962,2.303,7.981C2.303,5.083,4.655,2.403,7.881,2.403C10.944,2.403,13.432,4.864,13.432,7.981C13.432,11.29,10.698,13.505,7.881,13.505ZZ" style="fill: rgb(255, 204, 0); fill-opacity: 1;"/></g></g><g id="shape-286666f6-dea4-80db-8001-bfad31366db9"><g id="fills-286666f6-dea4-80db-8001-bfad31366db9"><path rx="0" ry="0" d="M24.248,6.313C24.248,6.177,24.221,6.095,24.139,6.013C24.03,5.903,23.948,5.876,23.838,5.876L21.049,5.876C20.913,5.876,20.803,5.903,20.721,6.013C20.639,6.095,20.612,6.177,20.612,6.313L20.612,9.075L21.377,9.075L21.377,12.384L23.483,12.384L23.483,9.075L24.248,9.075L24.248,6.313ZZM21.487,4.563C21.487,5.192,21.788,5.52,22.416,5.52C23.045,5.52,23.373,5.192,23.373,4.563C23.373,3.934,23.045,3.606,22.416,3.606C21.788,3.606,21.487,3.934,21.487,4.563ZZM22.416,1.2C18.506,1.2,15.663,4.372,15.663,7.981C15.663,11.782,18.752,14.763,22.416,14.763C25.971,14.763,29.225,12.028,29.225,7.981C29.225,4.235,26.299,1.2,22.416,1.2ZZM22.444,2.43C25.534,2.43,27.995,4.891,27.995,7.981C27.995,11.317,25.26,13.532,22.444,13.532C19.354,13.532,16.866,10.989,16.866,7.981C16.866,5.11,19.217,2.43,22.444,2.43ZZ" style="fill: rgb(255, 204, 0); fill-opacity: 1;"/></g></g><g id="shape-286666f6-dea4-80db-8001-bfad31366dba"><g id="fills-286666f6-dea4-80db-8001-bfad31366dba"><path rx="0" ry="0" d="M36.979,1.2C33.069,1.2,30.225,4.372,30.225,7.981C30.225,11.782,33.315,14.763,36.979,14.763C40.534,14.763,43.788,12.028,43.788,7.981C43.788,4.235,40.862,1.2,36.979,1.2ZZM37.006,2.43C40.096,2.43,42.557,4.891,42.557,7.981C42.557,11.317,39.823,13.532,37.006,13.532C33.916,13.532,31.428,10.989,31.428,7.981C31.428,5.11,33.78,2.43,37.006,2.43ZZM33.971,7.024L33.452,7.024L34.791,8.391L36.131,7.024L35.639,7.024C35.748,6.231,36.268,5.848,37.17,5.848C37.362,5.848,38.702,5.794,38.702,8.036C38.702,9.813,37.772,10.305,37.116,10.305C36.159,10.305,35.666,9.895,35.639,9.075L33.916,9.075C34.217,11.181,35.858,11.727,36.924,11.727C39.33,11.727,40.452,9.841,40.452,8.091C40.452,6.669,39.686,4.427,36.952,4.427C36.186,4.427,34.327,4.755,33.971,7.024ZZ" style="fill: rgb(255, 204, 0); fill-opacity: 1;"/></g></g></g></g></g></g></g></svg>