<?xml version="1.0" encoding="UTF-8" standalone="no"?>
<!DOCTYPE svg PUBLIC "-//W3C//DTD SVG 1.1//EN" "http://www.w3.org/Graphics/SVG/1.1/DTD/svg11.dtd">
<svg width="100%" height="100%" viewBox="0 0 24 24" version="1.1" xmlns="http://www.w3.org/2000/svg" xmlns:xlink="http://www.w3.org/1999/xlink" xml:space="preserve" xmlns:serif="http://www.serif.com/" style="fill-rule:evenodd;clip-rule:evenodd;stroke-linejoin:round;stroke-miterlimit:2;">
    <g id="peertube-grey" transform="matrix(2.2262e-17,0.363565,-0.358506,2.19521e-17,11.239,2.26364)">
        <path d="M39.237,1.922L39.686,1.324L40.26,0.887L40.899,0.63L41.56,0.546L42.222,0.63L42.86,0.887L43.435,1.324L43.883,1.922L53.257,18.834L53.523,19.517L53.597,20.231L53.488,20.913L53.222,21.527L52.817,22.054L52.284,22.472L51.641,22.746L50.934,22.842L32.187,22.842L31.48,22.746L30.837,22.472L30.304,22.054L29.899,21.527L29.633,20.913L29.524,20.231L29.598,19.517L29.864,18.834L39.237,1.922Z" style="fill:rgb(115,115,115);"/>
    </g>
    <g id="peertube-orange" transform="matrix(2.2262e-17,0.363565,-0.358506,2.19521e-17,11.239,2.26364)">
        <path d="M24.457,-25.712L24.906,-26.309L25.48,-26.746L26.119,-27.003L26.78,-27.087L27.442,-27.003L28.08,-26.746L28.654,-26.309L29.103,-25.711L38.477,-8.799L38.743,-8.116L38.816,-7.402L38.708,-6.72L38.442,-6.106L38.037,-5.579L37.503,-5.161L36.861,-4.887L36.154,-4.791L17.406,-4.791L16.699,-4.887L16.057,-5.161L15.524,-5.579L15.119,-6.106L14.852,-6.72L14.744,-7.402L14.817,-8.116L15.083,-8.799L24.457,-25.712Z" style="fill:rgb(241,104,13);"/>
    </g>
    <g id="peertube-black" transform="matrix(2.2262e-17,0.363565,-0.358506,2.19521e-17,11.239,2.26364)">
        <path d="M9.677,1.922L10.126,1.324L10.7,0.887L11.339,0.63L12,0.546L12.661,0.63L13.3,0.887L13.874,1.324L14.323,1.922L23.697,18.834L23.963,19.517L24.036,20.231L23.928,20.913L23.662,21.527L23.256,22.054L22.723,22.472L22.081,22.746L21.374,22.842L2.626,22.842L1.919,22.746L1.277,22.472L0.744,22.054L0.338,21.527L0.072,20.913L-0.036,20.231L0.037,19.517L0.303,18.834L9.677,1.922Z"/>
    </g>
</svg>
