<svg xmlns:xlink="http://www.w3.org/1999/xlink" width="24" xmlns="http://www.w3.org/2000/svg" height="24" id="screenshot-cf2f4ecb-3e87-809c-8001-de2c8d27ffe6" viewBox="0 0 24 24" style="-webkit-print-color-adjust: exact;" fill="none" version="1.1"><g xmlns:xlink="http://www.w3.org/1999/xlink" width="24" xml:space="preserve" height="24" id="shape-cf2f4ecb-3e87-809c-8001-de2c8d27ffe6" style="fill-rule: evenodd; clip-rule: evenodd; stroke-linejoin: round; stroke-miterlimit: 2; fill: rgb(0, 0, 0);" ry="0" rx="0" version="1.1"><g id="shape-cf2f4ecb-3e87-809c-8001-de2c8d28a3de" rx="0" ry="0" style="fill: rgb(0, 0, 0);"><g id="shape-cf2f4ecb-3e87-809c-8001-de2c8d290ac8" rx="0" ry="0" style="fill: rgb(0, 0, 0);"><g id="shape-cf2f4ecb-3e87-809c-8001-de2c8d29780d"><g class="fills" id="fills-cf2f4ecb-3e87-809c-8001-de2c8d29780d"><rect rx="0" ry="0" x="0" y="0" transform="matrix(1.000000, 0.000000, 0.000000, 1.000000, 0.000000, 0.000000)" width="24" height="24" style="fill: none;"/></g></g><g id="shape-cf2f4ecb-3e87-809c-8001-de2c8d29ebc1" rx="0" ry="0" style="fill: rgb(0, 0, 0);"><g id="shape-cf2f4ecb-3e87-809c-8001-de2c8d2a7e46"><g class="fills" id="fills-cf2f4ecb-3e87-809c-8001-de2c8d2a7e46"><path rx="0" ry="0" d="M7.288,3.892L19.012,10.839C19.421,11.082,19.673,11.524,19.673,12.000C19.673,12.476,19.421,12.918,19.012,13.161L7.289,20.108C7.080,20.232,6.842,20.297,6.600,20.297C5.860,20.297,5.250,19.688,5.250,18.947L5.250,5.053C5.250,4.312,5.860,3.703,6.600,3.703C6.842,3.703,7.080,3.768,7.288,3.892ZZM6.750,5.316L6.750,18.684L18.029,12.000L6.750,5.316ZZ"/></g></g></g></g></g></g></svg>