<svg xmlns:xlink="http://www.w3.org/1999/xlink" width="24" xmlns="http://www.w3.org/2000/svg" height="24" id="screenshot-cf2f4ecb-3e87-809c-8001-de2c8d3d7e75" viewBox="0 0 24 24" style="-webkit-print-color-adjust: exact;" fill="none" version="1.1"><g xmlns:xlink="http://www.w3.org/1999/xlink" width="24" xml:space="preserve" height="24" id="shape-cf2f4ecb-3e87-809c-8001-de2c8d3d7e75" style="fill-rule: evenodd; clip-rule: evenodd; stroke-linejoin: round; stroke-miterlimit: 2; fill: rgb(0, 0, 0);" ry="0" rx="0" version="1.1"><g id="shape-cf2f4ecb-3e87-809c-8001-de2c8d3e2953" rx="0" ry="0" style="fill: rgb(0, 0, 0);"><g id="shape-cf2f4ecb-3e87-809c-8001-de2c8d3eaec4" rx="0" ry="0" style="fill: rgb(0, 0, 0);"><g id="shape-cf2f4ecb-3e87-809c-8001-de2c8d3ef057"><g class="fills" id="fills-cf2f4ecb-3e87-809c-8001-de2c8d3ef057"><rect rx="0" ry="0" x="0" y="0" transform="matrix(1.000000, 0.000000, 0.000000, 1.000000, 0.000000, 0.000000)" width="24" height="24" style="fill: none;"/></g></g><g id="shape-cf2f4ecb-3e87-809c-8001-de2c8d3f5c41" rx="0" ry="0" style="fill: rgb(0, 0, 0);"><g id="shape-cf2f4ecb-3e87-809c-8001-de2c8d3fcc41" rx="0" ry="0" style="fill: rgb(0, 0, 0);"><g id="shape-cf2f4ecb-3e87-809c-8001-de2c8d40f17b"><g class="fills" id="fills-cf2f4ecb-3e87-809c-8001-de2c8d40f17b"><path rx="0" ry="0" d="M6.250,19.400L6.250,4.600C6.250,3.859,6.859,3.250,7.600,3.250L16.400,3.250C17.141,3.250,17.750,3.859,17.750,4.600L17.750,19.400C17.750,20.141,17.141,20.750,16.400,20.750L7.600,20.750C6.859,20.750,6.250,20.141,6.250,19.400ZZM7.750,4.750L7.750,19.250L16.250,19.250L16.250,4.750L7.750,4.750ZZM12.005,15.260C12.419,15.260,12.755,15.596,12.755,16.010C12.755,16.424,12.419,16.760,12.005,16.760C11.591,16.760,11.255,16.424,11.255,16.010C11.255,15.596,11.591,15.260,12.005,15.260ZZ"/></g></g></g></g></g></g></g></svg>