<svg xmlns:xlink="http://www.w3.org/1999/xlink" width="24" xmlns="http://www.w3.org/2000/svg" height="24" id="screenshot-4b6a7f9c-14db-80d5-8001-c8b5c329a398" viewBox="0 0 24 24" style="-webkit-print-color-adjust: exact;" fill="none" version="1.1"><g id="shape-4b6a7f9c-14db-80d5-8001-c8b5c329a398" width="32px" height="32px" rx="0" ry="0" style="fill: rgb(0, 0, 0);"><g id="shape-4b6a7f9c-14db-80d5-8001-c8b745e8f9d5"><g class="fills" id="fills-4b6a7f9c-14db-80d5-8001-c8b745e8f9d5"><path fill-rule="evenodd" clip-rule="evenodd" rx="0" ry="0" d="M8.250,2.000C8.250,1.586,8.586,1.250,9.000,1.250L15.000,1.250C15.414,1.250,15.750,1.586,15.750,2.000C15.750,2.414,15.414,2.750,15.000,2.750L9.000,2.750C8.586,2.750,8.250,2.414,8.250,2.000ZZM5.813,7.813C7.454,6.172,9.679,5.250,12.000,5.250C14.321,5.250,16.546,6.172,18.187,7.813C19.828,9.454,20.750,11.679,20.750,14.000C20.750,16.321,19.828,18.546,18.187,20.187C16.546,21.828,14.321,22.750,12.000,22.750C9.679,22.750,7.454,21.828,5.813,20.187C4.172,18.546,3.250,16.321,3.250,14.000C3.250,11.679,4.172,9.454,5.813,7.813ZZM12.000,6.750C10.077,6.750,8.233,7.514,6.873,8.873C5.514,10.233,4.750,12.077,4.750,14.000C4.750,15.923,5.514,17.767,6.873,19.126C8.233,20.486,10.077,21.250,12.000,21.250C13.923,21.250,15.767,20.486,17.127,19.126C18.486,17.767,19.250,15.923,19.250,14.000C19.250,12.077,18.486,10.233,17.127,8.873C15.767,7.514,13.923,6.750,12.000,6.750ZZM12.000,9.250C12.414,9.250,12.750,9.586,12.750,10.000L12.750,14.000C12.750,14.414,12.414,14.750,12.000,14.750C11.586,14.750,11.250,14.414,11.250,14.000L11.250,10.000C11.250,9.586,11.586,9.250,12.000,9.250ZZ" style="fill: rgb(0, 0, 0);"/></g></g></g></svg>