<svg xmlns:xlink="http://www.w3.org/1999/xlink" width="56" xmlns="http://www.w3.org/2000/svg" height="56" id="screenshot-eb938e81-54c4-80c0-8003-415ce471193b" viewBox="0 0 56 56" style="-webkit-print-color-adjust: exact;" fill="none" version="1.1"><g xmlns:xlink="http://www.w3.org/1999/xlink" width="32" xml:space="preserve" height="32" id="shape-eb938e81-54c4-80c0-8003-415ce471193b" style="fill: rgb(0, 0, 0);" ry="0" rx="0" version="1.1"><g id="shape-eb938e81-54c4-80c0-8003-415ce471193d" rx="0" ry="0" style="fill: rgb(0, 0, 0);"><g id="shape-eb938e81-54c4-80c0-8003-415ce471193f"><g class="fills" id="fills-eb938e81-54c4-80c0-8003-415ce471193f"><path rx="0" ry="0" d="M7.000,26.250L7.000,24.500L15.750,24.500L15.750,21.000L17.500,21.000L17.500,17.500L19.250,17.500L19.250,14.000L21.000,14.000L21.000,10.500L26.250,10.500L26.250,8.750L29.750,8.750L29.750,10.500L35.000,10.500L35.000,14.000L36.750,14.000L36.750,17.500L38.500,17.500L38.500,21.000L40.250,21.000L40.250,24.500L49.000,24.500L49.000,26.250L52.500,26.250L52.500,29.750L50.750,29.750L50.750,35.000L49.000,35.000L49.000,47.250L40.250,47.250L40.250,49.000L15.750,49.000L15.750,47.250L10.500,47.250L10.500,45.500L7.000,45.500L7.000,35.000L5.250,35.000L5.250,29.750L3.500,29.750L3.500,26.250L7.000,26.250ZZ" style="fill-rule: evenodd; clip-rule: evenodd; stroke-linejoin: round; stroke-miterlimit: 2; fill: rgb(255, 255, 255);"/></g></g><g id="shape-eb938e81-54c4-80c0-8003-415ce4711940"><g class="fills" id="fills-eb938e81-54c4-80c0-8003-415ce4711940"><path rx="0" ry="0" d="M7.000,28.000L7.000,26.250L14.000,26.250L14.000,28.000L12.250,28.000L12.250,31.500L7.000,31.500L7.000,29.750L5.250,29.750L5.250,28.000L7.000,28.000ZZM17.500,29.750L17.500,28.000L21.000,28.000L21.000,33.250L15.750,33.250L15.750,31.500L14.000,31.500L14.000,29.750L17.500,29.750ZZM22.776,22.750L22.776,22.355L24.500,22.355L24.500,21.000L26.250,21.000L26.250,22.750L24.526,22.750L24.526,24.105L24.500,24.105L24.500,24.500L22.750,24.500L22.776,22.750ZL22.776,22.750ZZM52.500,47.250L54.250,47.250L54.250,49.000L52.500,49.000L52.500,47.250ZZM50.750,45.500L50.750,43.750L52.500,43.750L52.500,47.250L49.000,47.250L49.000,45.500L50.750,45.500ZZM43.750,52.500L42.000,52.500L42.000,50.750L43.750,50.750L43.750,52.500ZZM45.500,52.500L45.500,50.750L47.250,50.750L47.250,49.000L50.750,49.000L50.750,50.750L52.500,50.750L52.500,54.250L47.250,54.250L47.250,52.500L45.500,52.500ZZM43.750,52.500L45.500,52.500L45.500,54.250L43.750,54.250L43.750,52.500ZZM38.500,29.750L42.000,29.750L42.000,31.500L40.250,31.500L40.250,33.250L35.000,33.250L35.000,28.000L38.500,28.000L38.500,29.750ZZM49.000,26.250L49.000,28.000L50.750,28.000L50.750,29.750L49.000,29.750L49.000,31.500L43.750,31.500L43.750,28.000L42.000,28.000L42.000,26.250L49.000,26.250ZZM24.500,31.500L24.500,29.750L26.250,29.750L26.250,28.000L29.750,28.000L29.750,29.750L31.500,29.750L31.500,31.500L33.250,31.500L33.250,33.250L22.750,33.250L22.750,31.500L24.500,31.500ZZM19.250,22.750L19.250,24.500L17.500,24.500L17.500,22.750L19.250,22.750ZZM36.750,52.500L36.750,54.250L35.000,54.250L35.000,52.500L36.750,52.500ZZM40.250,52.500L40.250,54.250L38.500,54.250L38.500,52.500L40.250,52.500ZZM22.750,12.250L22.750,14.000L21.000,14.000L21.000,12.250L22.750,12.250ZZM31.500,14.000L31.500,17.500L29.750,17.500L29.750,14.000L31.500,14.000ZZM35.000,12.250L35.000,14.000L33.250,14.000L33.250,12.250L35.000,12.250ZZM38.500,17.500L38.500,19.250L36.750,19.250L36.750,17.500L38.500,17.500ZZM29.750,8.750L29.750,10.500L26.250,10.500L26.250,8.750L29.750,8.750ZZ" style="fill-rule: evenodd; clip-rule: evenodd; stroke-linejoin: round; stroke-miterlimit: 2; fill: rgb(255, 204, 0);"/></g></g><g id="shape-eb938e81-54c4-80c0-8003-415ce47179e7"><g class="fills" id="fills-eb938e81-54c4-80c0-8003-415ce47179e7"><path rx="0" ry="0" d="M8.750,29.750L7.000,29.750L7.000,28.000L8.750,28.000L8.750,29.750ZZM8.750,29.750L10.500,29.750L10.500,31.500L8.750,31.500L8.750,29.750ZZM47.250,28.000L45.500,28.000L45.500,26.250L47.250,26.250L47.250,28.000ZZM47.250,28.000L49.000,28.000L49.000,31.500L45.500,31.500L45.500,29.750L47.250,29.750L47.250,28.000ZZM47.250,52.500L45.500,52.500L45.500,50.750L47.250,50.750L47.250,52.500ZZM47.250,52.500L52.500,52.500L52.500,54.250L47.250,54.250L47.250,52.500ZZM12.250,26.250L12.250,28.000L10.500,28.000L10.500,26.250L12.250,26.250ZZM17.500,29.750L17.500,31.500L15.750,31.500L15.750,29.750L17.500,29.750ZZ" style="fill-rule: evenodd; clip-rule: evenodd; stroke-linejoin: round; stroke-miterlimit: 2; fill: rgb(255, 153, 0);"/></g></g><g id="shape-eb938e81-54c4-80c0-8003-415ce47179e8"><g class="fills" id="fills-eb938e81-54c4-80c0-8003-415ce47179e8"><path rx="0" ry="0" d="M3.500,29.750L1.750,29.750L1.750,26.250L3.500,26.250L3.500,29.750ZZM3.500,26.250L3.500,24.500L7.000,24.500L7.000,26.250L3.500,26.250ZZM7.000,24.500L7.000,22.750L14.000,22.750L14.000,21.000L15.750,21.000L15.750,28.000L14.000,28.000L14.000,24.500L7.000,24.500ZZM15.750,21.000L15.750,17.500L17.500,17.500L17.500,21.000L15.750,21.000ZZM17.500,17.500L17.500,14.000L19.250,14.000L19.250,17.500L17.500,17.500ZZM19.250,14.000L19.250,10.500L21.000,10.500L21.000,14.000L19.250,14.000ZZM21.000,10.500L21.000,8.750L24.500,8.750L24.500,7.000L31.500,7.000L31.500,8.750L35.000,8.750L35.000,10.500L31.500,10.500L31.500,14.000L29.750,14.000L29.750,8.750L26.250,8.750L26.250,14.000L24.500,14.000L24.500,10.500L21.000,10.500ZZM35.000,10.500L36.750,10.500L36.750,14.000L35.000,14.000L35.000,10.500ZZM36.750,14.000L38.500,14.000L38.500,17.500L36.750,17.500L36.750,14.000ZZM38.500,17.500L40.250,17.500L40.250,21.000L38.500,21.000L38.500,17.500ZZM40.250,21.000L42.000,21.000L42.000,22.750L49.000,22.750L49.000,24.500L42.000,24.500L42.000,28.000L40.250,28.000L40.250,21.000ZZM49.000,24.500L52.500,24.500L52.500,26.250L49.000,26.250L49.000,24.500ZZM52.500,26.250L54.250,26.250L54.250,29.750L52.500,29.750L52.500,26.250ZZM52.500,35.000L50.750,35.000L50.750,31.500L49.000,31.500L49.000,29.750L52.500,29.750L52.500,35.000ZZM50.750,35.000L50.750,45.500L49.000,45.500L49.000,35.000L50.750,35.000ZZM49.000,45.500L49.000,47.250L45.500,47.250L45.500,45.500L49.000,45.500ZZM45.500,47.250L45.500,49.000L40.250,49.000L40.250,47.250L45.500,47.250ZZM40.250,49.000L40.250,50.750L15.750,50.750L15.750,49.000L40.250,49.000ZZM15.750,49.000L10.500,49.000L10.500,47.250L15.750,47.250L15.750,49.000ZZM10.500,47.250L7.000,47.250L7.000,45.500L10.500,45.500L10.500,47.250ZZM7.000,45.500L5.250,45.500L5.250,35.000L7.000,35.000L7.000,45.500ZZM5.250,35.000L3.500,35.000L3.500,29.750L7.000,29.750L7.000,31.500L5.250,31.500L5.250,35.000ZZM7.000,31.500L12.250,31.500L12.250,28.000L14.000,28.000L14.000,31.500L15.750,31.500L15.750,33.250L7.000,33.250L7.000,31.500ZZM15.750,33.250L21.000,33.250L21.000,22.750L22.750,22.750L22.750,33.250L33.250,33.250L33.250,22.750L35.000,22.750L35.000,33.250L40.250,33.250L40.250,35.000L15.750,35.000L15.750,33.250ZZM22.750,22.750L22.750,14.000L24.500,14.000L24.500,22.750L22.750,22.750ZZM31.500,14.000L33.250,14.000L33.250,22.750L31.500,22.750L31.500,14.000ZZM40.250,33.250L40.250,31.500L42.000,31.500L42.000,28.000L43.750,28.000L43.750,31.500L49.000,31.500L49.000,33.250L40.250,33.250ZZ" style="fill-rule: evenodd; clip-rule: evenodd; stroke-linejoin: round; stroke-miterlimit: 2; fill: rgb(51, 51, 51);"/></g></g><g id="shape-eb938e81-54c4-80c0-8003-415ce47179e9"><g class="fills" id="fills-eb938e81-54c4-80c0-8003-415ce47179e9"><path rx="0" ry="0" d="M22.750,40.250L22.750,45.500L21.000,45.500L21.000,42.000L19.250,42.000L19.250,45.500L17.500,45.500L17.500,40.250L22.750,40.250ZZM29.750,45.500L28.000,45.500L28.000,40.250L26.250,40.250L26.250,45.500L24.500,45.500L24.500,38.500L29.750,38.500L29.750,45.500ZZM36.750,40.250L36.750,45.500L35.000,45.500L35.000,42.000L33.250,42.000L33.250,45.500L31.500,45.500L31.500,40.250L36.750,40.250ZZ" style="fill-rule: evenodd; clip-rule: evenodd; stroke-linejoin: round; stroke-miterlimit: 2; fill: rgb(71, 71, 71);"/></g></g><g id="shape-eb938e81-54c4-80c0-8003-415ce47179ea" rx="0" ry="0" style="fill: rgb(0, 0, 0);"><g id="shape-eb938e81-54c4-80c0-8003-415ce47179eb"><g class="fills" id="fills-eb938e81-54c4-80c0-8003-415ce47179eb"><path rx="0" ry="0" d="M50.750,42.000L52.500,42.000L52.500,43.750L54.250,43.750L54.250,47.250L52.500,47.250L52.500,49.000L47.250,49.000L47.250,50.750L40.250,50.750L40.250,52.500L15.750,52.500L15.750,50.750L7.000,50.750L7.000,49.000L3.500,49.000L3.500,47.250L1.750,47.250L1.750,43.750L3.500,43.750L3.500,42.000L5.250,42.000L5.250,45.500L10.500,45.500L10.500,47.250L15.750,47.250L15.750,49.000L40.250,49.000L40.250,47.250L45.500,47.250L45.500,45.500L50.750,45.500L50.750,42.000ZZ" style="fill-rule: evenodd; clip-rule: evenodd; stroke-linejoin: round; stroke-miterlimit: 2; fill: rgb(0, 0, 0); fill-opacity: 0.2;"/></g></g><g id="shape-eb938e81-54c4-80c0-8003-415ce47179ec" rx="0" ry="0" style="fill: rgb(0, 0, 0);"><g id="shape-eb938e81-54c4-80c0-8003-415ce47179ed"><g class="fills" id="fills-eb938e81-54c4-80c0-8003-415ce47179ed"><rect rx="0" ry="0" x="40.2500000445807" y="35.000000015344085" transform="matrix(1.000000, 0.000000, 0.000000, 1.000000, 0.000000, 0.000000)" width="7.000000002228262" height="1.7499999931806087" style="fill-rule: evenodd; clip-rule: evenodd; stroke-linejoin: round; stroke-miterlimit: 2; fill: rgb(0, 0, 0); fill-opacity: 0.4;"/></g></g></g><g id="shape-eb938e81-54c4-80c0-8003-415ce47179ee" rx="0" ry="0" style="fill: rgb(0, 0, 0);"><g id="shape-eb938e81-54c4-80c0-8003-415ce47179ef"><g class="fills" id="fills-eb938e81-54c4-80c0-8003-415ce47179ef"><rect rx="0" ry="0" x="8.750000044582976" y="35.000000046034074" transform="matrix(1.000000, 0.000000, 0.000000, 1.000000, 0.000000, 0.000000)" width="7.000000002228262" height="1.7499999931796992" style="fill-rule: evenodd; clip-rule: evenodd; stroke-linejoin: round; stroke-miterlimit: 2; fill: rgb(0, 0, 0); fill-opacity: 0.4;"/></g></g></g><g id="shape-eb938e81-54c4-80c0-8003-415ce47179f0" rx="0" ry="0" style="fill: rgb(0, 0, 0);"><g id="shape-eb938e81-54c4-80c0-8003-415ce47179f1"><g class="fills" id="fills-eb938e81-54c4-80c0-8003-415ce47179f1"><rect rx="0" ry="0" x="8.750000046812147" y="36.750000046034074" transform="matrix(1.000000, 0.000000, 0.000000, 1.000000, 0.000000, 0.000000)" width="38.50000000222599" height="1.7499999624906195" style="fill-rule: evenodd; clip-rule: evenodd; stroke-linejoin: round; stroke-miterlimit: 2; fill: rgb(0, 0, 0); fill-opacity: 0.35;"/></g></g></g><g id="shape-eb938e81-54c4-80c0-8003-415ce47179f2" rx="0" ry="0" style="fill: rgb(0, 0, 0);"><g id="shape-eb938e81-54c4-80c0-8003-415ce47179f3"><g class="fills" id="fills-eb938e81-54c4-80c0-8003-415ce47179f3"><rect rx="0" ry="0" x="8.750000049041319" y="38.500000046034074" transform="matrix(1.000000, 0.000000, 0.000000, 1.000000, 0.000000, 0.000000)" width="38.50000000222599" height="1.7499999624906195" style="fill-rule: evenodd; clip-rule: evenodd; stroke-linejoin: round; stroke-miterlimit: 2; fill: rgb(0, 0, 0); fill-opacity: 0.25;"/></g></g></g><g id="shape-eb938e81-54c4-80c0-8003-415ce47179f4" rx="0" ry="0" style="fill: rgb(0, 0, 0);"><g id="shape-eb938e81-54c4-80c0-8003-415ce47179f5"><g class="fills" id="fills-eb938e81-54c4-80c0-8003-415ce47179f5"><rect rx="0" ry="0" x="10.50000005127049" y="40.25000004432877" transform="matrix(1.000000, 0.000000, 0.000000, 1.000000, 0.000000, 0.000000)" width="35.00000000222599" height="1.7499999659003151" style="fill-rule: evenodd; clip-rule: evenodd; stroke-linejoin: round; stroke-miterlimit: 2; fill: rgb(0, 0, 0); fill-opacity: 0.15;"/></g></g></g><g id="shape-eb938e81-54c4-80c0-8003-415ce47179f6" rx="0" ry="0" style="fill: rgb(0, 0, 0);"><g id="shape-eb938e81-54c4-80c0-8003-415ce47179f7"><g class="fills" id="fills-eb938e81-54c4-80c0-8003-415ce47179f7"><rect rx="0" ry="0" x="15.750000053498752" y="42.000000039213774" transform="matrix(1.000000, 0.000000, 0.000000, 1.000000, 0.000000, 0.000000)" width="24.500000002227353" height="1.7499999761303116" style="fill-rule: evenodd; clip-rule: evenodd; stroke-linejoin: round; stroke-miterlimit: 2; fill: rgb(0, 0, 0); fill-opacity: 0.05;"/></g></g></g><g id="shape-eb938e81-54c4-80c0-8003-415ce47179f8" rx="0" ry="0" style="fill: rgb(0, 0, 0);"><g id="shape-eb938e81-54c4-80c0-8003-415ce47179f9"><g class="fills" id="fills-eb938e81-54c4-80c0-8003-415ce47179f9"><rect rx="0" ry="0" x="26.25000003566447" y="28.000000028984687" transform="matrix(1.000000, 0.000000, 0.000000, 1.000000, 0.000000, 0.000000)" width="3.5000000066875145" height="5.249999996589395" style="fill-rule: evenodd; clip-rule: evenodd; stroke-linejoin: round; stroke-miterlimit: 2; fill: rgb(0, 0, 0); fill-opacity: 0.5;"/></g></g></g><g id="shape-eb938e81-54c4-80c0-8003-415ce47179fa" rx="0" ry="0" style="fill: rgb(0, 0, 0);"><g id="shape-eb938e81-54c4-80c0-8003-415ce47179fb"><g class="fills" id="fills-eb938e81-54c4-80c0-8003-415ce47179fb"><rect rx="0" ry="0" x="19.25000003566538" y="28.000000035804987" transform="matrix(1.000000, 0.000000, 0.000000, 1.000000, 0.000000, 0.000000)" width="1.7500000066875145" height="5.249999998293788" style="fill-rule: evenodd; clip-rule: evenodd; stroke-linejoin: round; stroke-miterlimit: 2; fill: rgb(0, 0, 0); fill-opacity: 0.5;"/></g></g></g><g id="shape-eb938e81-54c4-80c0-8003-415ce47179fc" rx="0" ry="0" style="fill: rgb(0, 0, 0);"><g id="shape-eb938e81-54c4-80c0-8003-415ce47179fd"><g class="fills" id="fills-eb938e81-54c4-80c0-8003-415ce47179fd"><rect rx="0" ry="0" x="10.50000003566629" y="28.00000004432968" transform="matrix(1.000000, 0.000000, 0.000000, 1.000000, 0.000000, 0.000000)" width="1.7500000044578883" height="3.4999999982946974" style="fill-rule: evenodd; clip-rule: evenodd; stroke-linejoin: round; stroke-miterlimit: 2; fill: rgb(0, 0, 0); fill-opacity: 0.5;"/></g></g></g><g id="shape-eb938e81-54c4-80c0-8003-415ce47179fe" rx="0" ry="0" style="fill: rgb(0, 0, 0);"><g id="shape-eb938e81-54c4-80c0-8003-415ce47179ff"><g class="fills" id="fills-eb938e81-54c4-80c0-8003-415ce47179ff"><rect rx="0" ry="0" x="35.00000003566447" y="28.000000020459993" transform="matrix(1.000000, 0.000000, 0.000000, 1.000000, 0.000000, 0.000000)" width="1.7500000066875145" height="5.249999998294697" style="fill-rule: evenodd; clip-rule: evenodd; stroke-linejoin: round; stroke-miterlimit: 2; fill: rgb(0, 0, 0); fill-opacity: 0.5;"/></g></g></g><g id="shape-eb938e81-54c4-80c0-8003-415ce4717a00" rx="0" ry="0" style="fill: rgb(0, 0, 0);"><g id="shape-eb938e81-54c4-80c0-8003-415ce4717a01"><g class="fills" id="fills-eb938e81-54c4-80c0-8003-415ce4717a01"><rect rx="0" ry="0" x="43.75000003566356" y="28.00000001193439" transform="matrix(1.000000, 0.000000, 0.000000, 1.000000, 0.000000, 0.000000)" width="1.7500000044578883" height="3.4999999982946974" style="fill-rule: evenodd; clip-rule: evenodd; stroke-linejoin: round; stroke-miterlimit: 2; fill: rgb(0, 0, 0); fill-opacity: 0.5;"/></g></g></g><g id="shape-eb938e81-54c4-80c0-8003-415ce4717a02" rx="0" ry="0" style="fill: rgb(0, 0, 0);"><g id="shape-eb938e81-54c4-80c0-8003-415ce4717a03"><g class="fills" id="fills-eb938e81-54c4-80c0-8003-415ce4717a03"><rect rx="0" ry="0" x="12.250000031207492" y="24.50000004262438" transform="matrix(1.000000, 0.000000, 0.000000, 1.000000, 0.000000, 0.000000)" width="1.7500000044578883" height="3.4999999982946974" style="fill-rule: evenodd; clip-rule: evenodd; stroke-linejoin: round; stroke-miterlimit: 2; fill: rgb(0, 0, 0); fill-opacity: 0.3;"/></g></g></g><g id="shape-eb938e81-54c4-80c0-8003-415ce4717a04" rx="0" ry="0" style="fill: rgb(0, 0, 0);"><g id="shape-eb938e81-54c4-80c0-8003-415ce4717a05"><g class="fills" id="fills-eb938e81-54c4-80c0-8003-415ce4717a05"><rect rx="0" ry="0" x="19.250000028977865" y="22.750000035804987" transform="matrix(1.000000, 0.000000, 0.000000, 1.000000, 0.000000, 0.000000)" width="1.7500000066875145" height="5.249999998294697" style="fill-rule: evenodd; clip-rule: evenodd; stroke-linejoin: round; stroke-miterlimit: 2; fill: rgb(0, 0, 0); fill-opacity: 0.3;"/></g></g></g><g id="shape-eb938e81-54c4-80c0-8003-415ce4717a06" rx="0" ry="0" style="fill: rgb(0, 0, 0);"><g id="shape-eb938e81-54c4-80c0-8003-415ce4717a07"><g class="fills" id="fills-eb938e81-54c4-80c0-8003-415ce4717a07"><rect rx="0" ry="0" x="21.000000024519522" y="19.250000034099685" transform="matrix(1.000000, 0.000000, 0.000000, 1.000000, 0.000000, 0.000000)" width="1.750000004458343" height="3.4999999982946974" style="fill-rule: evenodd; clip-rule: evenodd; stroke-linejoin: round; stroke-miterlimit: 2; fill: rgb(0, 0, 0); fill-opacity: 0.2;"/></g></g></g><g id="shape-eb938e81-54c4-80c0-8003-415ce4717a08" rx="0" ry="0" style="fill: rgb(0, 0, 0);"><g id="shape-eb938e81-54c4-80c0-8003-415ce4717a09"><g class="fills" id="fills-eb938e81-54c4-80c0-8003-415ce4717a09"><rect rx="0" ry="0" x="26.250000024518613" y="19.250000028984687" transform="matrix(1.000000, 0.000000, 0.000000, 1.000000, 0.000000, 0.000000)" width="3.500000004458343" height="3.4999999965903044" style="fill-rule: evenodd; clip-rule: evenodd; stroke-linejoin: round; stroke-miterlimit: 2; fill: rgb(0, 0, 0); fill-opacity: 0.2;"/></g></g></g><g id="shape-eb938e81-54c4-80c0-8003-415ce4717a0a" rx="0" ry="0" style="fill: rgb(0, 0, 0);"><g id="shape-eb938e81-54c4-80c0-8003-415ce4717a0b"><g class="fills" id="fills-eb938e81-54c4-80c0-8003-415ce4717a0b"><rect rx="0" ry="0" x="33.25000002451861" y="19.250000022164386" transform="matrix(1.000000, 0.000000, 0.000000, 1.000000, 0.000000, 0.000000)" width="1.750000004458343" height="3.499999998295607" style="fill-rule: evenodd; clip-rule: evenodd; stroke-linejoin: round; stroke-miterlimit: 2; fill: rgb(0, 0, 0); fill-opacity: 0.2;"/></g></g></g><g id="shape-eb938e81-54c4-80c0-8003-415ce4717a0c" rx="0" ry="0" style="fill: rgb(0, 0, 0);"><g id="shape-eb938e81-54c4-80c0-8003-415ce4717a0d"><g class="fills" id="fills-eb938e81-54c4-80c0-8003-415ce4717a0d"><rect rx="0" ry="0" x="21.00000002006118" y="15.750000034099685" transform="matrix(1.000000, 0.000000, 0.000000, 1.000000, 0.000000, 0.000000)" width="1.750000004458343" height="3.4999999982946974" style="fill-rule: evenodd; clip-rule: evenodd; stroke-linejoin: round; stroke-miterlimit: 2; fill: none; fill-opacity: 0.15;"/></g></g></g><g id="shape-eb938e81-54c4-80c0-8003-415ce4717a0e" rx="0" ry="0" style="fill: rgb(0, 0, 0);"><g id="shape-eb938e81-54c4-80c0-8003-415ce4717a0f"><g class="fills" id="fills-eb938e81-54c4-80c0-8003-415ce4717a0f"><rect rx="0" ry="0" x="26.25000002006027" y="15.750000028984687" transform="matrix(1.000000, 0.000000, 0.000000, 1.000000, 0.000000, 0.000000)" width="3.500000004458343" height="3.4999999965903044" style="fill-rule: evenodd; clip-rule: evenodd; stroke-linejoin: round; stroke-miterlimit: 2; fill: none; fill-opacity: 0.15;"/></g></g></g><g id="shape-eb938e81-54c4-80c0-8003-415ce4717a10" rx="0" ry="0" style="fill: rgb(0, 0, 0);"><g id="shape-eb938e81-54c4-80c0-8003-415ce4717a11"><g class="fills" id="fills-eb938e81-54c4-80c0-8003-415ce4717a11"><rect rx="0" ry="0" x="33.2500000178311" y="14.000000022165295" transform="matrix(1.000000, 0.000000, 0.000000, 1.000000, 0.000000, 0.000000)" width="1.7500000022291715" height="1.7499999982946974" style="fill-rule: evenodd; clip-rule: evenodd; stroke-linejoin: round; stroke-miterlimit: 2; fill: none; fill-opacity: 0.05;"/></g></g></g><g id="shape-eb938e81-54c4-80c0-8003-415ce4717a12" rx="0" ry="0" style="fill: rgb(0, 0, 0);"><g id="shape-eb938e81-54c4-80c0-8003-415ce4717a13"><g class="fills" id="fills-eb938e81-54c4-80c0-8003-415ce4717a13"><rect rx="0" ry="0" x="31.500000015601927" y="12.250000023870598" transform="matrix(1.000000, 0.000000, 0.000000, 1.000000, 0.000000, 0.000000)" width="1.7500000022291715" height="1.7499999982946974" style="fill-rule: evenodd; clip-rule: evenodd; stroke-linejoin: round; stroke-miterlimit: 2; fill: none; fill-opacity: 0.05;"/></g></g></g><g id="shape-eb938e81-54c4-80c0-8003-415ce471a983" rx="0" ry="0" style="fill: rgb(0, 0, 0);"><g id="shape-eb938e81-54c4-80c0-8003-415ce471a984"><g class="fills" id="fills-eb938e81-54c4-80c0-8003-415ce471a984"><rect rx="0" ry="0" x="22.750000015602836" y="12.250000032395292" transform="matrix(1.000000, 0.000000, 0.000000, 1.000000, 0.000000, 0.000000)" width="1.7500000022291715" height="1.7499999982946974" style="fill-rule: evenodd; clip-rule: evenodd; stroke-linejoin: round; stroke-miterlimit: 2; fill: none; fill-opacity: 0.05;"/></g></g></g><g id="shape-eb938e81-54c4-80c0-8003-415ce471a985" rx="0" ry="0" style="fill: rgb(0, 0, 0);"><g id="shape-eb938e81-54c4-80c0-8003-415ce471a986"><g class="fills" id="fills-eb938e81-54c4-80c0-8003-415ce471a986"><rect rx="0" ry="0" x="21.000000017832008" y="14.000000034099685" transform="matrix(1.000000, 0.000000, 0.000000, 1.000000, 0.000000, 0.000000)" width="1.7500000022291715" height="1.7499999982946974" style="fill-rule: evenodd; clip-rule: evenodd; stroke-linejoin: round; stroke-miterlimit: 2; fill: none; fill-opacity: 0.05;"/></g></g></g><g id="shape-eb938e81-54c4-80c0-8003-415ce471a987" rx="0" ry="0" style="fill: rgb(0, 0, 0);"><g id="shape-eb938e81-54c4-80c0-8003-415ce471a988"><g class="fills" id="fills-eb938e81-54c4-80c0-8003-415ce471a988"><rect rx="0" ry="0" x="19.250000026748694" y="21.000000035804987" transform="matrix(1.000000, 0.000000, 0.000000, 1.000000, 0.000000, 0.000000)" width="1.7500000022291715" height="1.7499999982946974" style="fill-rule: evenodd; clip-rule: evenodd; stroke-linejoin: round; stroke-miterlimit: 2; fill: rgb(0, 0, 0); fill-opacity: 0.2;"/></g></g></g><g id="shape-eb938e81-54c4-80c0-8003-415ce471a989" rx="0" ry="0" style="fill: rgb(0, 0, 0);"><g id="shape-eb938e81-54c4-80c0-8003-415ce471a98a"><g class="fills" id="fills-eb938e81-54c4-80c0-8003-415ce471a98a"><rect rx="0" ry="0" x="35.000000026747784" y="21.000000020459993" transform="matrix(1.000000, 0.000000, 0.000000, 1.000000, 0.000000, 0.000000)" width="1.7500000022291715" height="1.7499999982946974" style="fill-rule: evenodd; clip-rule: evenodd; stroke-linejoin: round; stroke-miterlimit: 2; fill: rgb(0, 0, 0); fill-opacity: 0.2;"/></g></g></g><g id="shape-eb938e81-54c4-80c0-8003-415ce471a98b" rx="0" ry="0" style="fill: rgb(0, 0, 0);"><g id="shape-eb938e81-54c4-80c0-8003-415ce471a98c"><g class="fills" id="fills-eb938e81-54c4-80c0-8003-415ce471a98c"><rect rx="0" ry="0" x="26.250000028976956" y="22.750000028984687" transform="matrix(1.000000, 0.000000, 0.000000, 1.000000, 0.000000, 0.000000)" width="3.5000000066875145" height="5.249999996590304" style="fill-rule: evenodd; clip-rule: evenodd; stroke-linejoin: round; stroke-miterlimit: 2; fill: rgb(0, 0, 0); fill-opacity: 0.3;"/></g></g></g><g id="shape-eb938e81-54c4-80c0-8003-415ce471a98d" rx="0" ry="0" style="fill: rgb(0, 0, 0);"><g id="shape-eb938e81-54c4-80c0-8003-415ce471a98e"><g class="fills" id="fills-eb938e81-54c4-80c0-8003-415ce471a98e"><rect rx="0" ry="0" x="35.000000028976956" y="22.750000020459993" transform="matrix(1.000000, 0.000000, 0.000000, 1.000000, 0.000000, 0.000000)" width="1.7500000066875145" height="5.249999998294697" style="fill-rule: evenodd; clip-rule: evenodd; stroke-linejoin: round; stroke-miterlimit: 2; fill: rgb(0, 0, 0); fill-opacity: 0.3;"/></g></g></g><g id="shape-eb938e81-54c4-80c0-8003-415ce471a98f" rx="0" ry="0" style="fill: rgb(0, 0, 0);"><g id="shape-eb938e81-54c4-80c0-8003-415ce471a990"><g class="fills" id="fills-eb938e81-54c4-80c0-8003-415ce471a990"><rect rx="0" ry="0" x="42.00000003120522" y="24.500000013639692" transform="matrix(1.000000, 0.000000, 0.000000, 1.000000, 0.000000, 0.000000)" width="1.750000004458343" height="3.4999999982946974" style="fill-rule: evenodd; clip-rule: evenodd; stroke-linejoin: round; stroke-miterlimit: 2; fill: rgb(0, 0, 0); fill-opacity: 0.3;"/></g></g></g></g></g></g></svg>