<svg xmlns:xlink="http://www.w3.org/1999/xlink" width="60" xmlns="http://www.w3.org/2000/svg" height="48" id="screenshot-52681cb5-ea62-804f-8001-bd52a690e9b8" viewBox="0 0 60 48" style="-webkit-print-color-adjust: exact;" fill="none" version="1.1"><g id="shape-52681cb5-ea62-804f-8001-bd52a690e9b8" width="60" height="48" rx="0" ry="0" style="fill: rgb(0, 0, 0);"><g id="shape-52681cb5-ea62-804f-8001-bd52a690e9ba"><g id="fills-52681cb5-ea62-804f-8001-bd52a690e9ba"><path rx="0" ry="0" d="M18,45L12,45L12,42L3,42L3,39L0,39L0,36L3,36L3,33L57,33L57,36L60,36L60,39L57,39L57,42L48,42L48,45L42,45L42,48L18,48L18,45ZZ" style="fill: rgb(223, 223, 223);"/></g></g><g id="shape-52681cb5-ea62-804f-8001-bd52a690e9bb"><g id="fills-52681cb5-ea62-804f-8001-bd52a690e9bb"><path rx="0" ry="0" d="M42,6L48,6L48,9L51,9L51,18L57,18L57,24L54,24L54,30L51,30L51,33L48,33L48,36L42,36L42,39L18,39L18,36L12,36L12,33L9,33L9,27L6,27L6,24L3,24L3,18L6,18L6,15L9,15L9,9L12,9L12,6L18,6L18,3L42,3L42,6ZZ" style="fill: rgb(255, 255, 255);"/></g></g><g id="shape-52681cb5-ea62-804f-8001-bd52a690e9bc"><g id="fills-52681cb5-ea62-804f-8001-bd52a690e9bc"><path rx="0" ry="0" d="M45,12L48,12L48,15L51,15L51,21L57,21L57,24.5L54,24.5L54,30L51,30L51,33L48,33L48,36L42,36L42,39L18,39L18,36L12,36L12,27L9,27L9,21L12,21L12,18L15,18L15,15L18,15L18,12L21,12L21,9L45,9L45,12ZZ" style="fill: rgb(255, 204, 0);"/></g></g><g id="shape-52681cb5-ea62-804f-8001-bd52a690e9bd"><g id="fills-52681cb5-ea62-804f-8001-bd52a690e9bd"><path rx="0" ry="0" d="M48,21L51,21L51,24L48,24L48,21ZZ" style="fill: rgb(198, 159, 36);"/></g></g><g id="shape-52681cb5-ea62-804f-8001-bd52a690e9be"><g id="fills-52681cb5-ea62-804f-8001-bd52a690e9be"><path rx="0" ry="0" d="M51,24L54,24L54,27L51,27L51,24ZZ" style="fill: rgb(198, 159, 36);"/></g></g><g id="shape-52681cb5-ea62-804f-8001-bd52a690e9bf"><g id="fills-52681cb5-ea62-804f-8001-bd52a690e9bf"><path rx="0" ry="0" d="M27,33L30,33L30,36L27,36L27,33ZZ" style="fill: rgb(198, 159, 36);"/></g></g><g id="shape-52681cb5-ea62-804f-8001-bd52a690e9c0"><g id="fills-52681cb5-ea62-804f-8001-bd52a690e9c0"><path rx="0" ry="0" d="M21,33L24,33L24,36L21,36L21,33ZZ" style="fill: rgb(198, 159, 36);"/></g></g><g id="shape-52681cb5-ea62-804f-8001-bd52a690e9c1"><g id="fills-52681cb5-ea62-804f-8001-bd52a690e9c1"><path rx="0" ry="0" d="M15,30L18,30L18,33L15,33L15,30ZZ" style="fill: rgb(198, 159, 36);"/></g></g><g id="shape-52681cb5-ea62-804f-8001-bd52a690e9c2"><g id="fills-52681cb5-ea62-804f-8001-bd52a690e9c2"><path rx="0" ry="0" d="M15,18L18,18L18,21L15,21L15,18ZZ" style="fill: rgb(252, 239, 179);"/></g></g><g id="shape-52681cb5-ea62-804f-8001-bd52a690e9c3"><g id="fills-52681cb5-ea62-804f-8001-bd52a690e9c3"><path rx="0" ry="0" d="M18,15L21,15L21,18L18,18L18,15ZZ" style="fill: rgb(252, 239, 179);"/></g></g><g id="shape-52681cb5-ea62-804f-8001-bd52a690e9c4"><g id="fills-52681cb5-ea62-804f-8001-bd52a690e9c4"><path rx="0" ry="0" d="M27,12L30,12L30,15L27,15L27,12ZZ" style="fill: rgb(252, 239, 179);"/></g></g><g id="shape-52681cb5-ea62-804f-8001-bd52a690e9c5"><g id="fills-52681cb5-ea62-804f-8001-bd52a690e9c5"><path rx="0" ry="0" d="M30,15L33,15L33,18L30,18L30,15ZZ" style="fill: rgb(252, 239, 179);"/></g></g><g id="shape-52681cb5-ea62-804f-8001-bd52a690e9c6"><g id="fills-52681cb5-ea62-804f-8001-bd52a690e9c6"><path rx="0" ry="0" d="M21,12L24,12L24,15L21,15L21,12ZZ" style="fill: rgb(252, 239, 179);"/></g></g><g id="shape-52681cb5-ea62-804f-8001-bd52a690e9c7"><g id="fills-52681cb5-ea62-804f-8001-bd52a690e9c7"><path rx="0" ry="0" d="M36,9L39,9L39,12L36,12L36,9ZZ" style="fill: rgb(252, 239, 179);"/></g></g><g id="shape-52681cb5-ea62-804f-8001-bd52a690e9c8"><g id="fills-52681cb5-ea62-804f-8001-bd52a690e9c8"><path rx="0" ry="0" d="M24,15L27,15L27,18L24,18L24,15ZZ" style="fill: rgb(252, 239, 179);"/></g></g><g id="shape-52681cb5-ea62-804f-8001-bd52a690e9c9"><g id="fills-52681cb5-ea62-804f-8001-bd52a690e9c9"><path rx="0" ry="0" d="M24,9L27,9L27,12L24,12L24,9ZZ" style="fill: rgb(252, 239, 179);"/></g></g><g id="shape-52681cb5-ea62-804f-8001-bd52a690e9ca"><g id="fills-52681cb5-ea62-804f-8001-bd52a690e9ca"><path rx="0" ry="0" d="M30,9L33,9L33,12L30,12L30,9ZZ" style="fill: rgb(252, 239, 179);"/></g></g><g id="shape-52681cb5-ea62-804f-8001-bd52a690e9cb"><g id="fills-52681cb5-ea62-804f-8001-bd52a690e9cb"><path rx="0" ry="0" d="M3,24L3,27L6,27L6,24L3,24ZZM0,18L0,24L3,24L3,18L0,18ZZM3,15L3,18L6,18L6,15L3,15ZZM6,9L6,15L9,15L9,9L6,9ZZM9,6L9,9L12,9L12,6L9,6ZZM12,3L12,6L18,6L18,3L12,3ZZM18,0L18,3L42,3L42,0L18,0ZZM42,3L42,6L48,6L48,3L42,3ZZM48,6L48,9L51,9L51,6L48,6ZZM52.5,18L51,18L51,9L54,9L54,15L57,15L57,18L52.5,18ZZM57,18L57,24L60,24L60,18L57,18ZZM54,24L54,30L57,30L57,24L54,24ZZM51,30L51,33L54,33L54,30L51,30ZZM48,33L48,36L51,36L51,33L48,33ZZM42,36L42,39L48,39L48,36L42,36ZZM18,39L18,42L42,42L42,39L18,39ZZM12,36L12,39L18,39L18,36L12,36ZZM9,33L9,36L12,36L12,33L9,33ZZM6,27L6,33L9,33L9,27L6,27ZZ" style="fill: rgb(0, 0, 0);"/></g></g></g></svg>