<svg width="40" height="40" viewBox="0 0 40 40" fill="none" xmlns="http://www.w3.org/2000/svg">
<path d="M24.3617 10.2959C26.08 9.23265 27.3484 8.90098 28.1993 9.02448L28.3236 9.04781C28.3416 9.0521 28.3583 9.05654 28.3735 9.06106C28.5873 9.12447 28.7618 9.2797 28.8496 9.48465C29.3655 10.6883 29.4583 12.0254 29.1229 13.2802L29.0942 13.3753L29.1597 13.4542C29.9665 14.4712 30.4348 15.7188 30.4939 17.0204L30.5002 17.3001C30.5002 21.8923 28.445 24.0797 24.7027 24.8426L24.6022 24.8613L24.675 25.017L24.7669 25.2497C24.9367 25.7213 25.0188 26.2192 25.0114 26.682L25.0002 26.9101V29.7801C25.0002 30.1943 24.6645 30.5301 24.2502 30.5301C23.8706 30.5301 23.5568 30.248 23.5071 29.8819L23.5002 29.7801L23.5026 26.8513C23.5317 26.4806 23.4816 26.1079 23.3556 25.7581C23.2296 25.4082 23.0305 25.0891 22.7717 24.8221C22.3379 24.3746 22.6076 23.6238 23.2272 23.5547C27.1104 23.1219 29.0002 21.5328 29.0002 17.3003C29 16.0965 28.537 14.939 27.707 14.0672C27.5091 13.8594 27.4472 13.5568 27.5476 13.2879C27.8762 12.4072 27.9071 11.448 27.6437 10.5551L27.6322 10.5203L27.5574 10.5321C27.4801 10.5454 27.3945 10.5635 27.3004 10.5872L27.1527 10.6272C26.482 10.8202 25.6558 11.2209 24.6678 11.8831C24.4875 12.004 24.2636 12.0408 24.0541 11.984C21.8905 11.3976 19.61 11.3976 17.4464 11.984C17.2369 12.0408 17.013 12.004 16.8326 11.8831C15.8447 11.2209 15.0185 10.8202 14.3478 10.6272C14.1936 10.5828 14.059 10.5521 13.9431 10.5321L13.8672 10.5203L13.8567 10.5551C13.6173 11.3669 13.621 12.2333 13.8706 13.0458L13.9529 13.2879C14.0533 13.5568 13.9913 13.8594 13.7934 14.0673C12.9573 14.9455 12.4938 16.1135 12.5002 17.3301C12.5002 21.5239 14.3752 23.1005 18.2827 23.5858C18.8966 23.6621 19.1594 24.407 18.7292 24.8516C18.4734 25.116 18.2761 25.4312 18.1502 25.7768C18.0495 26.0532 17.9962 26.3442 17.9931 26.6643L18.0002 26.9101V29.7801C18.0002 30.1943 17.6645 30.5301 17.2502 30.5301C16.8705 30.5301 16.5567 30.248 16.5071 29.8819L16.5002 29.7801L16.5021 26.9627C16.4615 26.3858 16.5429 25.8067 16.7409 25.2632C16.7691 25.1856 16.7997 25.109 16.8325 25.0334L16.9042 24.8803L16.7851 24.8559C13.1195 24.0707 11.0915 21.9814 11.0032 17.634L11.0001 17.334C10.9927 15.9219 11.4681 14.5556 12.3382 13.4574L12.4052 13.3753L12.3776 13.2802C12.0661 12.115 12.1239 10.8789 12.5468 9.74453L12.6509 9.48463C12.7387 9.2797 12.9132 9.12447 13.127 9.06106L13.2349 9.03549C13.2557 9.03158 13.2778 9.02789 13.3012 9.02448C14.152 8.90098 15.4205 9.23265 17.1388 10.2959L17.3842 10.4513L17.4825 10.4273C19.631 9.91653 21.8695 9.91653 24.018 10.4273L24.1152 10.4513L24.3617 10.2959Z" fill="black"/>
<path fill-rule="evenodd" clip-rule="evenodd" d="M9.6646 24.3559C10.0351 24.1706 10.4856 24.3208 10.6708 24.6913C11.3603 26.0703 12.242 26.9128 13.2269 27.3247C14.2123 27.7368 15.3971 27.7582 16.7686 27.3133C17.1626 27.1855 17.5856 27.4013 17.7134 27.7953C17.8412 28.1893 17.6254 28.6123 17.2314 28.7401C15.6029 29.2684 14.0377 29.2898 12.6481 28.7086C11.2581 28.1272 10.1397 26.9831 9.32919 25.3621C9.14395 24.9916 9.29412 24.5411 9.6646 24.3559Z" fill="black"/>
</svg>
