<svg width="40" height="40" viewBox="0 0 40 40" fill="none" xmlns="http://www.w3.org/2000/svg">
<path fill-rule="evenodd" clip-rule="evenodd" d="M14.25 20C14.25 19.5858 14.5858 19.25 15 19.25H25C25.4142 19.25 25.75 19.5858 25.75 20C25.75 20.4142 25.4142 20.75 25 20.75H15C14.5858 20.75 14.25 20.4142 14.25 20Z" fill="#212121"/>
<path fill-rule="evenodd" clip-rule="evenodd" d="M14.25 16C14.25 15.5858 14.5858 15.25 15 15.25H21C21.4142 15.25 21.75 15.5858 21.75 16C21.75 16.4142 21.4142 16.75 21 16.75H15C14.5858 16.75 14.25 16.4142 14.25 16Z" fill="#212121"/>
<path fill-rule="evenodd" clip-rule="evenodd" d="M13 11.75C12.3096 11.75 11.75 12.3096 11.75 13V27.8619L13.8139 25.2821C14.3357 24.6298 15.1258 24.25 15.9612 24.25H27C27.6904 24.25 28.25 23.6904 28.25 23V13C28.25 12.3096 27.6904 11.75 27 11.75H13ZM11.4829 28.1958C11.4828 28.1958 11.4829 28.1957 11.4829 28.1958ZM10.25 13C10.25 11.4812 11.4812 10.25 13 10.25H27C28.5188 10.25 29.75 11.4812 29.75 13V23C29.75 24.5188 28.5188 25.75 27 25.75H15.9612C15.5815 25.75 15.2224 25.9226 14.9852 26.2191C14.9852 26.2191 14.9852 26.2191 14.9852 26.2191L12.6542 29.1328C11.857 30.1293 10.25 29.5657 10.25 28.2895V13Z" fill="#FFCC00"/>
</svg>
