<svg width="40" height="40" viewBox="0 0 40 40" fill="none" xmlns="http://www.w3.org/2000/svg">
<path fill-rule="evenodd" clip-rule="evenodd" d="M16.25 10C16.25 9.58579 16.5858 9.25 17 9.25H23C23.4142 9.25 23.75 9.58579 23.75 10C23.75 10.4142 23.4142 10.75 23 10.75H17C16.5858 10.75 16.25 10.4142 16.25 10Z" fill="black"/>
<path fill-rule="evenodd" clip-rule="evenodd" d="M20 17.25C20.4142 17.25 20.75 17.5858 20.75 18V22C20.75 22.4142 20.4142 22.75 20 22.75C19.5858 22.75 19.25 22.4142 19.25 22V18C19.25 17.5858 19.5858 17.25 20 17.25Z" fill="black"/>
<path fill-rule="evenodd" clip-rule="evenodd" d="M11.25 22C11.25 17.1675 15.1675 13.25 20 13.25C24.8325 13.25 28.75 17.1675 28.75 22C28.75 26.8325 24.8325 30.75 20 30.75C15.1675 30.75 11.25 26.8325 11.25 22ZM20 14.75C15.9959 14.75 12.75 17.9959 12.75 22C12.75 26.0041 15.9959 29.25 20 29.25C24.0041 29.25 27.25 26.0041 27.25 22C27.25 17.9959 24.0041 14.75 20 14.75Z" fill="black"/>
</svg>
